<?xml version="1.0" encoding="UTF-8" standalone="no"?>
<svg
   viewBox="23.6 0 60.509195 860.99453"
   version="1.1"
   id="svg155"
   sodipodi:docname="alt_legend-ft-horiz_darkmode.svg"
   width="60.509193"
   height="860.99451"
   inkscape:version="1.2.2 (b0a8486541, 2022-12-01)"
   xmlns:inkscape="http://www.inkscape.org/namespaces/inkscape"
   xmlns:sodipodi="http://sodipodi.sourceforge.net/DTD/sodipodi-0.dtd"
   xmlns="http://www.w3.org/2000/svg"
   xmlns:svg="http://www.w3.org/2000/svg"
   xmlns:rdf="http://www.w3.org/1999/02/22-rdf-syntax-ns#"
   xmlns:cc="http://creativecommons.org/ns#"
   xmlns:dc="http://purl.org/dc/elements/1.1/">
  <sodipodi:namedview
     id="namedview157"
     pagecolor="#ffffff"
     bordercolor="#666666"
     borderopacity="1.0"
     inkscape:showpageshadow="2"
     inkscape:pageopacity="0.0"
     inkscape:pagecheckerboard="0"
     inkscape:deskcolor="#d1d1d1"
     showgrid="false"
     inkscape:zoom="1.1059884"
     inkscape:cx="16.72712"
     inkscape:cy="513.1157"
     inkscape:window-width="3360"
     inkscape:window-height="1411"
     inkscape:window-x="2151"
     inkscape:window-y="1318"
     inkscape:window-maximized="1"
     inkscape:current-layer="svg155" />
  <defs
     id="defs25">
    <style
       id="style2">.cls-1{fill:url(#linear-gradient);}.cls-2{fill:none;stroke:#000;stroke-miterlimit:10;}</style>
    <linearGradient
       id="linear-gradient"
       x1="92.32"
       y1="6.5799999"
       x2="920.71997"
       y2="6.5799999"
       gradientUnits="userSpaceOnUse"
       gradientTransform="translate(-925.725,23.600014)">
      <stop
         offset="0.033"
         stop-color="hsl(23, 88%, 51%)"
         id="stop4" />
      <stop
         offset="0.066"
         stop-color="hsl(26, 88%, 52%)"
         id="stop6" />
      <stop
         offset="0.126"
         stop-color="hsl(32, 88%, 54%)"
         id="stop8" />
      <stop
         offset="0.19"
         stop-color="hsl(43, 88%, 53%)"
         id="stop10" />
      <stop
         offset="0.253"
         stop-color="hsl(54, 88%, 45%)"
         id="stop12" />
      <stop
         offset="0.316"
         stop-color="hsl(72, 88%, 42%)"
         id="stop14" />
      <stop
         offset="0.38"
         stop-color="hsl(112, 88%, 41%)"
         id="stop16" />
      <stop
         offset="0.59"
         stop-color="hsl(189, 88%, 44%)"
         id="stop18" />
      <stop
         offset="0.79"
         stop-color="hsl(244, 88%, 57%)"
         id="stop20" />
      <stop
         offset="1"
         stop-color="hsl(300, 88%, 43%)"
         id="stop22" />
    </linearGradient>
  </defs>
  <title
     id="title27">Altitude Legend (m)</title>
  <rect
     class="cls-1"
     x="-833.40503"
     width="828.40002"
     height="13.17"
     id="rect29"
     style="fill:url(#linear-gradient)"
     y="23.6"
     transform="rotate(-90)" />
  <polyline
     class="cls-2"
     points="92.44 0 92.44 13.4 920.72 13.4 920.72 0"
     id="polyline31"
     transform="rotate(-90,474.66251,451.06249)"
     style="stroke:#ffffff" />
  <path
     d="m 41.510004,833.33501 c 0,-1.87 0.13,-4.37 2.42,-4.36 2.29,0.01 2.42,2.28 2.42,4.37 0,1.8 -0.13,4.29 -2.42,4.29 -2.29,0 -2.42,-2.29 -2.42,-4.3 z m 2.42,3.5 c 1.3,0 1.37,-1.71 1.37,-3.5 0,-1.79 -0.07,-3.57 -1.37,-3.58 -1.3,-0.01 -1.42,1.71 -1.42,3.58 0,1.87 0.1,3.5 1.39,3.5 z"
     id="path33"
     style="fill:#ffffff" />
  <g
     id="g571"
     transform="rotate(90,60.905437,-416.23499)"
     style="fill:#ffffff">
    <path
       d="m 478.54043,-396.83957 c -0.06,-1.07 -0.19,-2.05 -1.39,-2.1 v -0.72 h 8.49 v 1 h -6.38 v 1.81 z"
       id="path35"
       style="fill:#ffffff" />
    <path
       d="m 485.64043,-407.04957 v 4.75 a 4.53,4.53 0 0 1 -3.48,-1.83 l -0.59,-0.7 a 2.51,2.51 0 0 0 -2,-1.13 c -0.73,0 -1.52,0.32 -1.52,1.24 0,1.31 1.36,1.34 1.83,1.34 v 1.06 c -1.61,0 -2.7,-0.67 -2.7,-2.41 a 2.11,2.11 0 0 1 2.27,-2.28 3.35,3.35 0 0 1 2.79,1.49 l 1,1.2 a 2.64,2.64 0 0 0 1.45,0.92 v -3.65 z"
       id="path37"
       style="fill:#ffffff" />
    <path
       d="m 481.51043,-410.88957 c -1.87,0 -4.37,-0.13 -4.37,-2.42 0,-2.29 2.28,-2.42 4.37,-2.42 1.8,0 4.29,0.13 4.29,2.42 0,2.29 -2.27,2.42 -4.29,2.42 z m 3.5,-2.42 c 0,-1.29 -1.71,-1.37 -3.5,-1.37 -1.79,0 -3.57,0.07 -3.57,1.37 0,1.3 1.7,1.37 3.57,1.37 1.87,0 3.51,-0.08 3.51,-1.38 z"
       id="path39"
       style="fill:#ffffff" />
    <path
       d="m 481.51043,-416.65957 c -1.87,0 -4.37,-0.13 -4.37,-2.42 0,-2.29 2.28,-2.42 4.37,-2.42 1.8,0 4.29,0.13 4.29,2.42 0,2.29 -2.27,2.42 -4.29,2.42 z m 3.5,-2.42 c 0,-1.3 -1.71,-1.37 -3.5,-1.37 -1.79,0 -3.57,0.07 -3.57,1.37 0,1.3 1.7,1.37 3.57,1.37 1.87,0 3.51,-0.07 3.51,-1.37 z"
       id="path41"
       style="fill:#ffffff" />
    <path
       d="m 481.51043,-422.40957 c -1.87,0 -4.37,-0.13 -4.37,-2.42 0,-2.29 2.28,-2.42 4.37,-2.42 1.8,0 4.29,0.13 4.29,2.42 0,2.29 -2.27,2.42 -4.29,2.42 z m 3.5,-2.42 c 0,-1.3 -1.71,-1.37 -3.5,-1.37 -1.79,0 -3.57,0.07 -3.57,1.37 0,1.3 1.7,1.37 3.57,1.37 1.87,0 3.51,-0.08 3.51,-1.38 z"
       id="path43"
       style="fill:#ffffff" />
    <path
       d="m 481.8062,-430.91957 v 2.64 h -0.79 v -2.64 h -2.66 v -0.79 h 2.64 v -2.64 h 0.81 v 2.64 h 2.64 v 0.79 z"
       id="path45"
       style="fill:#ffffff" />
  </g>
  <line
     class="cls-2"
     x1="23.6"
     x2="37.790001"
     y2="190.33499"
     id="line47"
     y1="190.33499"
     style="stroke:#ffffff" />
  <g
     id="g577"
     transform="rotate(90,47.770427,-243.32999)"
     style="fill:#ffffff">
    <path
       d="m 483.77043,-238.28957 a 1.12,1.12 0 0 0 1.25,-1.12 c 0,-1.42 -2.12,-1.5 -2.55,-1.5 h -0.67 v 0 a 1.85,1.85 0 0 1 0.95,1.62 c 0,1.48 -1.09,2.22 -2.69,2.22 -1.6,0 -2.9,-0.82 -2.9,-2.4 0,-2.35 2.28,-2.52 4,-2.52 1.94,0 4.63,0.12 4.63,2.58 a 2,2 0 0 1 -2,2.15 z m -5.83,-1.15 c 0,1.06 1.07,1.34 2,1.34 0.93,0 2,-0.22 2,-1.34 0,-1.12 -1.07,-1.34 -2,-1.34 -0.93,0 -2,0.28 -2,1.33 z"
       id="path49"
       style="fill:#ffffff" />
    <path
       d="m 481.51043,-245.71957 c -1.87,0 -4.37,-0.13 -4.37,-2.42 0,-2.29 2.28,-2.42 4.37,-2.42 1.8,0 4.29,0.13 4.29,2.42 0,2.29 -2.27,2.42 -4.29,2.42 z m 3.5,-2.42 c 0,-1.29 -1.71,-1.37 -3.5,-1.37 -1.79,0 -3.57,0.07 -3.57,1.37 0,1.3 1.7,1.37 3.57,1.37 1.87,0 3.51,-0.08 3.51,-1.38 z"
       id="path51"
       style="fill:#ffffff" />
    <path
       d="m 481.51043,-251.47957 c -1.87,0 -4.37,-0.13 -4.37,-2.42 0,-2.29 2.28,-2.42 4.37,-2.42 1.8,0 4.29,0.13 4.29,2.42 0,2.29 -2.27,2.42 -4.29,2.42 z m 3.5,-2.42 c 0,-1.29 -1.71,-1.37 -3.5,-1.37 -1.79,0 -3.57,0.07 -3.57,1.37 0,1.3 1.7,1.37 3.57,1.37 1.87,0 3.51,-0.08 3.51,-1.38 z"
       id="path53"
       style="fill:#ffffff" />
    <path
       d="m 481.51043,-257.19957 c -1.87,0 -4.37,-0.13 -4.37,-2.42 0,-2.29 2.28,-2.42 4.37,-2.42 1.8,0 4.29,0.13 4.29,2.42 0,2.29 -2.27,2.42 -4.29,2.42 z m 3.5,-2.42 c 0,-1.3 -1.71,-1.37 -3.5,-1.37 -1.79,0 -3.57,0.07 -3.57,1.37 0,1.3 1.7,1.37 3.57,1.37 1.87,0 3.51,-0.12 3.51,-1.42 z"
       id="path55"
       style="fill:#ffffff" />
  </g>
  <line
     class="cls-2"
     x1="23.6"
     x2="37.790001"
     y2="360.17502"
     id="line57"
     y1="360.17502"
     style="stroke:#ffffff" />
  <g
     id="g583"
     transform="rotate(90,47.795437,-73.465001)"
     style="fill:#ffffff">
    <path
       d="m 479.19043,-70.87957 a 1.11,1.11 0 0 0 -1.25,1.12 c 0,1.42 2.11,1.5 2.55,1.5 h 0.67 v 0 a 1.85,1.85 0 0 1 -0.95,-1.62 c 0,-1.48 1.09,-2.22 2.69,-2.22 1.6,0 2.9,0.82 2.9,2.4 0,2.35 -2.27,2.52 -4,2.52 -1.94,0 -4.63,-0.12 -4.63,-2.58 a 2,2 0 0 1 2,-2.15 z m 5.83,1.15 c 0,-1.06 -1.08,-1.34 -2,-1.34 -0.92,0 -2,0.22 -2,1.34 0,1.12 1.08,1.34 2,1.34 0.92,0 2,-0.29 2,-1.34 z"
       id="path59"
       style="fill:#ffffff" />
    <path
       d="m 481.51043,-75.88957 c -1.87,0 -4.37,-0.13 -4.37,-2.42 0,-2.29 2.28,-2.42 4.37,-2.42 1.8,0 4.29,0.13 4.29,2.42 0,2.29 -2.27,2.42 -4.29,2.42 z m 3.5,-2.42 c 0,-1.29 -1.71,-1.37 -3.5,-1.37 -1.79,0 -3.57,0.07 -3.57,1.37 0,1.3 1.7,1.37 3.57,1.37 1.87,0 3.51,-0.08 3.51,-1.37 z"
       id="path61"
       style="fill:#ffffff" />
    <path
       d="m 481.51043,-81.64957 c -1.87,0 -4.37,-0.13 -4.37,-2.42 0,-2.29 2.28,-2.42 4.37,-2.42 1.8,0 4.29,0.13 4.29,2.42 0,2.29 -2.27,2.42 -4.29,2.42 z m 3.5,-2.42 c 0,-1.29 -1.71,-1.37 -3.5,-1.37 -1.79,0 -3.57,0.07 -3.57,1.37 0,1.3 1.7,1.37 3.57,1.37 1.87,0 3.51,-0.08 3.51,-1.37 z"
       id="path63"
       style="fill:#ffffff" />
    <path
       d="m 481.51043,-87.40957 c -1.87,0 -4.37,-0.13 -4.37,-2.42 0,-2.29 2.28,-2.42 4.37,-2.42 1.8,0 4.29,0.13 4.29,2.42 0,2.29 -2.27,2.42 -4.29,2.42 z m 3.5,-2.42 c 0,-1.3 -1.71,-1.37 -3.5,-1.37 -1.79,0 -3.57,0.07 -3.57,1.37 0,1.3 1.7,1.37 3.57,1.37 1.87,0 3.51,-0.08 3.51,-1.37 z"
       id="path65"
       style="fill:#ffffff" />
  </g>
  <line
     class="cls-2"
     x1="23.6"
     x2="37.790001"
     y2="484.755"
     id="line67"
     y1="484.755"
     style="stroke:#ffffff" />
  <g
     id="g589"
     transform="rotate(90,47.763737,51.229149)"
     style="fill:#ffffff">
    <path
       d="m 480.82043,55.80043 v -0.53 c 0,-0.9 -0.65,-1.3 -1.5,-1.3 -0.85,0 -1.42,0.29 -1.42,1.1 0,1.12 1,1.22 1.66,1.22 v 1.06 c -1.45,0 -2.45,-0.68 -2.45,-2.26 a 2,2 0 0 1 2.21,-2.18 1.75,1.75 0 0 1 1.82,1.32 v 0 a 1.82,1.82 0 0 1 2,-1.57 c 1.55,0 2.63,0.78 2.63,2.41 a 2.26,2.26 0 0 1 -2.36,2.41 h -0.11 v -1.06 c 0.78,0 1.68,-0.38 1.68,-1.35 0,-0.62 -0.31,-1.35 -1.75,-1.36 a 1.42,1.42 0 0 0 -1.62,1.54 v 0.55 z"
       id="path69"
       style="fill:#ffffff" />
    <path
       d="m 481.48043,48.80043 c -1.87,0 -4.37,-0.13 -4.36,-2.42 0.01,-2.29 2.28,-2.42 4.37,-2.42 1.8,0 4.29,0.13 4.29,2.42 0,2.29 -2.28,2.42 -4.3,2.42 z m 3.5,-2.42 c 0,-1.3 -1.71,-1.37 -3.5,-1.37 -1.79,0 -3.57,0.07 -3.57,1.37 0,1.3 1.7,1.42 3.57,1.42 1.87,0 3.54,-0.08 3.54,-1.38 z"
       id="path71"
       style="fill:#ffffff" />
    <path
       d="m 481.48043,43.08043 c -1.87,0 -4.37,-0.13 -4.37,-2.42 0,-2.29 2.28,-2.42 4.37,-2.42 1.8,0 4.29,0.13 4.29,2.42 0,2.29 -2.27,2.42 -4.29,2.42 z m 3.5,-2.42 c 0,-1.3 -1.71,-1.37 -3.5,-1.37 -1.79,0 -3.57,0.07 -3.58,1.37 -0.01,1.3 1.7,1.37 3.57,1.37 1.87,0 3.55,-0.07 3.55,-1.37 z"
       id="path73"
       style="fill:#ffffff" />
    <path
       d="m 481.49043,37.32043 c -1.87,0 -4.37,-0.13 -4.37,-2.42 0,-2.29 2.28,-2.42 4.37,-2.42 1.8,0 4.29,0.13 4.29,2.42 0,2.29 -2.28,2.42 -4.29,2.42 z m 3.53,-2.42 c 0,-1.29 -1.71,-1.37 -3.5,-1.37 -1.79,0 -3.57,0.07 -3.58,1.37 -0.01,1.3 1.7,1.37 3.57,1.37 1.87,0 3.51,-0.07 3.51,-1.37 z"
       id="path75"
       style="fill:#ffffff" />
  </g>
  <line
     class="cls-2"
     x1="23.6"
     x2="37.790001"
     y2="541.53497"
     id="line77"
     y1="541.53497"
     style="stroke:#ffffff" />
  <g
     id="g595"
     transform="rotate(90,47.747937,108.2125)"
     style="fill:#ffffff">
    <path
       d="m 485.59043,109.70043 v 4.75 a 4.53,4.53 0 0 1 -3.48,-1.84 l -0.59,-0.7 a 2.51,2.51 0 0 0 -2,-1.13 c -0.73,0 -1.52,0.32 -1.52,1.24 0,1.31 1.35,1.34 1.83,1.34 v 1.06 c -1.61,0 -2.7,-0.67 -2.7,-2.41 a 2.11,2.11 0 0 1 2.27,-2.28 3.35,3.35 0 0 1 2.79,1.49 l 1,1.2 a 2.64,2.64 0 0 0 1.45,0.92 v -3.65 z"
       id="path79"
       style="fill:#ffffff" />
    <path
       d="m 477.10043,102.88043 v -1 h 5.58 v -1 h 0.86 v 1 h 2.05 v 1 h -2.05 v 3.07 h -0.95 z m 5.58,2.16 v -2.16 h -3.92 v 0 z"
       id="path81"
       style="fill:#ffffff" />
    <path
       d="m 481.47043,100.10043 c -1.87,0 -4.37,-0.13 -4.36,-2.42 0.01,-2.29 2.28,-2.42 4.37,-2.42 1.8,0 4.29,0.13 4.29,2.42 0,2.29 -2.29,2.42 -4.3,2.42 z m 3.5,-2.42 c 0,-1.3 -1.71,-1.37 -3.5,-1.37 -1.79,0 -3.57,0.07 -3.57,1.37 0,1.3 1.7,1.37 3.57,1.37 1.87,0 3.55,-0.08 3.55,-1.37 z"
       id="path83"
       style="fill:#ffffff" />
    <path
       d="m 481.47043,94.34043 c -1.87,0 -4.37,-0.13 -4.36,-2.42 0.01,-2.29 2.28,-2.42 4.37,-2.42 1.8,0 4.29,0.13 4.29,2.42 0,2.29 -2.28,2.42 -4.3,2.42 z m 3.5,-2.42 c 0,-1.29 -1.71,-1.37 -3.5,-1.37 -1.79,0 -3.57,0.07 -3.57,1.37 0,1.3 1.7,1.37 3.57,1.37 1.87,0 3.55,-0.08 3.55,-1.37 z"
       id="path85"
       style="fill:#ffffff" />
  </g>
  <line
     class="cls-2"
     x1="23.6"
     x2="37.790001"
     y2="599.88501"
     id="line87"
     y1="599.88501"
     style="stroke:#ffffff" />
  <g
     id="g601"
     transform="rotate(90,47.664467,165.98598)"
     style="fill:#ffffff">
    <path
       d="m 478.48043,172.14043 c -0.06,-1.07 -0.19,-2.05 -1.39,-2.1 v -0.72 h 8.49 v 1 h -6.38 v 1.81 z"
       id="path89"
       style="fill:#ffffff" />
    <path
       d="m 481.02043,162.36043 a 1.76,1.76 0 0 1 -1.81,1.23 2.17,2.17 0 0 1 0,-4.34 1.76,1.76 0 0 1 1.81,1.24 2,2 0 0 1 2.18,-1.5 2.44,2.44 0 1 1 0,4.87 2,2 0 0 1 -2.18,-1.5 z m 3.9,-0.93 c 0,-1 -0.75,-1.38 -1.75,-1.38 -1,0 -1.75,0.4 -1.75,1.38 0,0.98 0.76,1.38 1.75,1.38 0.99,0 1.78,-0.4 1.78,-1.38 z m -5.68,1.11 c 0.79,0 1.39,-0.33 1.39,-1.12 0,-0.79 -0.6,-1.12 -1.39,-1.12 -0.79,0 -1.39,0.35 -1.39,1.12 0,0.77 0.62,1.12 1.42,1.12 z"
       id="path91"
       style="fill:#ffffff" />
    <path
       d="m 481.45043,158.09043 c -1.87,0 -4.37,-0.13 -4.36,-2.42 0.01,-2.29 2.28,-2.42 4.37,-2.42 1.8,0 4.29,0.13 4.29,2.42 0,2.29 -2.28,2.42 -4.3,2.42 z m 3.5,-2.42 c 0,-1.29 -1.71,-1.37 -3.5,-1.37 -1.79,0 -3.57,0.07 -3.58,1.37 -0.01,1.3 1.7,1.37 3.57,1.37 1.87,0 3.52,-0.08 3.52,-1.37 z"
       id="path93"
       style="fill:#ffffff" />
    <path
       d="m 481.46043,152.33043 c -1.87,0 -4.37,-0.13 -4.36,-2.42 0.01,-2.29 2.28,-2.42 4.37,-2.42 1.8,0 4.29,0.13 4.29,2.42 0,2.29 -2.29,2.42 -4.3,2.42 z m 3.5,-2.42 c 0,-1.3 -1.71,-1.37 -3.5,-1.37 -1.79,0 -3.57,0.07 -3.57,1.37 0,1.3 1.7,1.37 3.57,1.37 1.87,0 3.5,-0.08 3.5,-1.37 z"
       id="path95"
       style="fill:#ffffff" />
  </g>
  <line
     class="cls-2"
     x1="23.6"
     x2="37.790001"
     y2="658.23499"
     id="line97"
     y1="658.23499"
     style="stroke:#ffffff" />
  <g
     id="g607"
     transform="rotate(90,47.657937,225.5625)"
     style="fill:#ffffff">
    <path
       d="m 478.46043,231.71043 c -0.06,-1.07 -0.19,-2.05 -1.39,-2.1 v -0.72 h 8.49 v 1 h -6.38 v 1.81 z"
       id="path99"
       style="fill:#ffffff" />
    <path
       d="m 485.56043,218.62043 v 4.75 a 4.53,4.53 0 0 1 -3.48,-1.84 l -0.59,-0.7 a 2.51,2.51 0 0 0 -2,-1.13 c -0.73,0 -1.52,0.32 -1.52,1.24 0,1.31 1.36,1.34 1.83,1.34 v 1.06 c -1.61,0 -2.7,-0.67 -2.7,-2.41 a 2.11,2.11 0 0 1 2.27,-2.28 3.35,3.35 0 0 1 2.79,1.49 l 1,1.2 a 2.64,2.64 0 0 0 1.45,0.92 v -3.65 z"
       id="path101"
       style="fill:#ffffff" />
    <path
       d="m 481.44043,217.66043 c -1.87,0 -4.37,-0.13 -4.36,-2.42 0.01,-2.29 2.27,-2.44 4.36,-2.44 1.8,0 4.29,0.13 4.29,2.42 0,2.29 -2.28,2.44 -4.29,2.44 z m 3.5,-2.42 c 0,-1.29 -1.71,-1.37 -3.5,-1.37 -1.79,0 -3.57,0.07 -3.57,1.37 0,1.3 1.7,1.37 3.57,1.37 1.87,0 3.5,-0.08 3.5,-1.37 z"
       id="path103"
       style="fill:#ffffff" />
    <path
       d="m 481.44043,211.90043 c -1.87,0 -4.37,-0.13 -4.36,-2.42 0.01,-2.29 2.28,-2.42 4.37,-2.42 1.8,0 4.29,0.13 4.29,2.42 0,2.29 -2.29,2.42 -4.3,2.42 z m 3.5,-2.42 c 0,-1.3 -1.71,-1.37 -3.5,-1.37 -1.79,0 -3.57,0.07 -3.57,1.37 0,1.3 1.7,1.32 3.57,1.32 1.87,0 3.5,0 3.5,-1.32 z"
       id="path105"
       style="fill:#ffffff" />
  </g>
  <line
     class="cls-2"
     x1="23.6"
     x2="37.790001"
     y2="716.58502"
     id="line107"
     y1="716.58502"
     style="stroke:#ffffff" />
  <g
     id="g612"
     transform="rotate(90,45.590427,281.71)"
     style="fill:#ffffff">
    <path
       d="m 479.09043,282.09043 a 1.11,1.11 0 0 0 -1.25,1.12 c 0,1.42 2.11,1.5 2.55,1.5 h 0.67 v 0 a 1.85,1.85 0 0 1 -0.95,-1.62 c 0,-1.48 1.09,-2.22 2.69,-2.22 1.6,0 2.9,0.82 2.9,2.4 0,2.35 -2.27,2.52 -4,2.52 -1.94,0 -4.63,-0.12 -4.63,-2.58 a 2,2 0 0 1 2,-2.15 z m 5.83,1.15 c 0,-1.06 -1.08,-1.34 -2,-1.34 -0.92,0 -2,0.22 -2,1.34 0,1.12 1.08,1.34 2,1.34 0.92,0 2,-0.28 2,-1.34 z"
       id="path109"
       style="fill:#ffffff" />
    <path
       d="m 481.42043,279.97043 c -1.87,0 -4.37,-0.13 -4.36,-2.42 0.01,-2.29 2.28,-2.42 4.37,-2.42 1.8,0 4.29,0.13 4.29,2.42 0,2.29 -2.28,2.42 -4.3,2.42 z m 3.5,-2.42 c 0,-1.3 -1.71,-1.37 -3.5,-1.37 -1.79,0 -3.57,0.07 -3.57,1.37 0,1.3 1.7,1.37 3.57,1.37 1.87,0 3.5,-0.12 3.5,-1.38 z"
       id="path111"
       style="fill:#ffffff" />
    <path
       d="m 481.42043,274.21043 c -1.87,0 -4.37,-0.13 -4.37,-2.42 0,-2.29 2.28,-2.42 4.37,-2.42 1.8,0 4.29,0.13 4.29,2.42 0,2.29 -2.27,2.42 -4.29,2.42 z m 3.5,-2.42 c 0,-1.3 -1.71,-1.37 -3.5,-1.37 -1.79,0 -3.57,0.07 -3.58,1.37 -0.01,1.3 1.7,1.37 3.57,1.37 1.87,0 3.52,-0.08 3.52,-1.36 z"
       id="path113"
       style="fill:#ffffff" />
  </g>
  <line
     class="cls-2"
     x1="23.6"
     x2="37.790001"
     y2="774.935"
     id="line115"
     y1="774.935"
     style="stroke:#ffffff" />
  <g
     id="g617"
     transform="rotate(90,45.561237,339.65165)"
     style="fill:#ffffff">
    <path
       d="m 480.74043,342.01043 v -0.53 c 0,-0.9 -0.65,-1.3 -1.5,-1.3 -0.85,0 -1.42,0.29 -1.42,1.1 0,1.12 1,1.22 1.66,1.22 v 1.06 c -1.45,0 -2.45,-0.68 -2.45,-2.26 a 2,2 0 0 1 2.21,-2.18 1.75,1.75 0 0 1 1.78,1.33 v 0 a 1.82,1.82 0 0 1 2,-1.57 c 1.55,0 2.63,0.78 2.63,2.41 a 2.26,2.26 0 0 1 -2.36,2.41 h -0.11 v -1.06 c 0.78,0 1.68,-0.38 1.68,-1.35 0,-0.62 -0.31,-1.36 -1.75,-1.36 a 1.42,1.42 0 0 0 -1.62,1.54 v 0.54 z"
       id="path117"
       style="fill:#ffffff" />
    <path
       d="m 481.40043,337.96043 c -1.87,0 -4.37,-0.13 -4.36,-2.42 0.01,-2.29 2.28,-2.42 4.37,-2.42 1.8,0 4.29,0.13 4.29,2.42 0,2.29 -2.28,2.42 -4.3,2.42 z m 3.5,-2.42 c 0,-1.3 -1.71,-1.37 -3.5,-1.37 -1.79,0 -3.57,0.07 -3.57,1.37 0,1.3 1.7,1.37 3.57,1.37 1.87,0 3.51,-0.11 3.51,-1.38 z"
       id="path119"
       style="fill:#ffffff" />
    <path
       d="m 481.41043,332.20043 c -1.87,0 -4.37,-0.13 -4.36,-2.42 0.01,-2.29 2.28,-2.42 4.37,-2.42 1.8,0 4.29,0.13 4.29,2.42 0,2.29 -2.29,2.42 -4.3,2.42 z m 3.5,-2.42 c 0,-1.3 -1.71,-1.37 -3.5,-1.37 -1.79,0 -3.57,0.07 -3.57,1.37 0,1.3 1.7,1.37 3.57,1.37 1.87,0 3.5,-0.08 3.5,-1.35 z"
       id="path121"
       style="fill:#ffffff" />
  </g>
  <line
     class="cls-2"
     x1="23.6"
     x2="37.790001"
     y2="804.90503"
     id="line123"
     y1="804.90503"
     style="stroke:#ffffff" />
  <g
     id="g622"
     transform="rotate(90,45.475427,369.20501)"
     style="fill:#ffffff">
    <path
       d="m 478.42043,373.17043 c -0.06,-1.07 -0.19,-2.05 -1.39,-2.1 v -0.72 h 8.49 v 1 h -6.38 v 1.81 z"
       id="path125"
       style="fill:#ffffff" />
    <path
       d="m 477.19043,367.05043 v -3.79 h 0.94 v 3 l 2.46,0.34 v 0 a 1.92,1.92 0 0 1 -0.63,-1.49 c 0,-1.27 1,-2.13 2.79,-2.13 1.58,0 2.91,0.7 2.91,2.47 a 2.21,2.21 0 0 1 -2.35,2.33 v -1.06 c 0.44,0 1.56,-0.17 1.56,-1.29 0,-1.12 -1.34,-1.39 -2.21,-1.39 -0.87,0 -1.92,0.35 -1.92,1.42 a 1.26,1.26 0 0 0 0.83,1.2 v 0.91 z"
       id="path127"
       style="fill:#ffffff" />
    <path
       d="m 481.39043,362.00043 c -1.87,0 -4.37,-0.13 -4.36,-2.42 0.01,-2.29 2.28,-2.42 4.37,-2.42 1.8,0 4.29,0.13 4.29,2.42 0,2.29 -2.28,2.42 -4.3,2.42 z m 3.5,-2.42 c 0,-1.29 -1.71,-1.37 -3.5,-1.37 -1.79,0 -3.57,0.07 -3.57,1.37 0,1.3 1.7,1.37 3.57,1.37 1.87,0 3.51,-0.08 3.51,-1.37 z"
       id="path129"
       style="fill:#ffffff" />
  </g>
  <g
     id="g635"
     transform="rotate(90,49.047747,436.75183)"
     style="fill:#ffffff">
    <path
       d="m 462.49043,459.75957 v -1.75 l 8.53,-2.25 v 1.44 l -2.1,0.53 v 2.47 l 2.1,0.57 v 1.43 z m 5.38,-1.82 -4.22,1 v 0 l 4.22,1 z"
       id="path131"
       style="fill:#ffffff" />
    <path
       d="m 462.49043,455.30957 v -1.37 h 7.41 v -3.31 h 1.12 v 4.68 z"
       id="path133"
       style="fill:#ffffff" />
    <path
       d="m 463.65043,449.51957 v 2 h -1.16 v -5.32 h 1.16 v 2 h 7.37 v 1.33 z"
       id="path135"
       style="fill:#ffffff" />
    <path
       d="m 462.50043,445.42957 v -1.37 h 8.52 v 1.37 z"
       id="path137"
       style="fill:#ffffff" />
    <path
       d="m 463.65043,441.29957 v 2 h -1.15 v -5.41 h 1.15 v 2 h 7.37 v 1.42 z"
       id="path139"
       style="fill:#ffffff" />
    <path
       d="m 462.50043,435.88957 h 6.14 c 1.08,0 1.56,-0.43 1.56,-1.26 0,-0.83 -0.48,-1.25 -1.56,-1.25 h -6.14 v -1.37 h 6 c 2,0 2.7,1 2.7,2.62 0,1.62 -0.72,2.63 -2.7,2.63 h -6 z"
       id="path141"
       style="fill:#ffffff" />
    <path
       d="m 462.50043,430.70957 v -2.43 c 0,-2.69 1.75,-3 4.28,-3 2.53,0 4.28,0.34 4.28,3 v 2.43 z m 7.52,-1.37 v -1.14 c 0,-1.13 -0.74,-1.59 -3.25,-1.6 -2.51,-0.01 -3.24,0.43 -3.24,1.6 v 1.14 z"
       id="path143"
       style="fill:#ffffff" />
    <path
       d="m 462.50043,424.02957 v -4.63 h 1.16 v 3.27 h 2.36 v -3.07 h 1.16 v 3.07 h 2.74 v -3.36 h 1.1 v 4.73 z"
       id="path145"
       style="fill:#ffffff" />
    <path
       d="m 462.51043,412.97957 a 10.13,10.13 0 0 0 5.38,1.37 10.43,10.43 0 0 0 5.39,-1.37 v 0.92 a 9.15,9.15 0 0 1 -10.77,0 z"
       id="path147"
       style="fill:#ffffff" />
    <path
       d="m 464.62043,412.29957 v -1.22 h 0.75 v 0 a 1.81,1.81 0 0 1 -0.92,-1.55 1.4,1.4 0 0 1 1,-1.5 1.76,1.76 0 0 1 -1,-1.63 c 0,-0.91 0.47,-1.57 1.72,-1.57 h 4.91 v 1.26 h -4.43 c -0.84,0 -1.16,0.25 -1.16,0.78 0,0.53 0.42,1 1.26,1 h 4.33 v 1.33 h -4.43 c -0.84,0 -1.16,0.25 -1.16,0.79 0,0.54 0.42,1 1.26,1 h 4.33 v 1.31 z"
       id="path149"
       style="fill:#ffffff" />
    <path
       d="m 473.29043,404.37043 a 10.12,10.12 0 0 0 -5.39,-1.37 10.42,10.42 0 0 0 -5.38,1.36 v -0.92 a 9.16,9.16 0 0 1 10.77,0 z"
       id="path151"
       style="fill:#ffffff" />
  </g>
  <metadata
     id="metadata1191">
    <rdf:RDF>
      <cc:Work
         rdf:about="">
        <dc:title>Altitude Legend (m)</dc:title>
      </cc:Work>
    </rdf:RDF>
  </metadata>
</svg>
