<?xml version="1.0" encoding="UTF-8" standalone="no"?>
<!-- Created with Inkscape (http://www.inkscape.org/) -->

<svg
   width="9.3353195in"
   height="0.28327101in"
   viewBox="0 0 237.11712 7.1950838"
   version="1.1"
   id="svg1"
   xml:space="preserve"
   inkscape:version="1.2.2 (b0a8486541, 2022-12-01)"
   sodipodi:docname="icons-and-images.svg"
   xmlns:inkscape="http://www.inkscape.org/namespaces/inkscape"
   xmlns:sodipodi="http://sodipodi.sourceforge.net/DTD/sodipodi-0.dtd"
   xmlns="http://www.w3.org/2000/svg"
   xmlns:svg="http://www.w3.org/2000/svg"><style
     id="style20">
.measure-arrow
{
}
.measure-label
{

}
.measure-line
{
}</style><sodipodi:namedview
     id="namedview1"
     pagecolor="#ffffff"
     bordercolor="#353535"
     borderopacity="1"
     inkscape:showpageshadow="0"
     inkscape:pageopacity="0"
     inkscape:pagecheckerboard="0"
     inkscape:deskcolor="#a8a8a8"
     inkscape:document-units="mm"
     inkscape:zoom="1.8087721"
     inkscape:cx="2524.3645"
     inkscape:cy="768.20072"
     inkscape:window-width="3321"
     inkscape:window-height="1411"
     inkscape:window-x="3831"
     inkscape:window-y="338"
     inkscape:window-maximized="1"
     inkscape:current-layer="layer1"
     showgrid="false"><inkscape:grid
       id="grid20"
       units="px"
       originx="249.35526"
       originy="8.4686694"
       spacingx="0.26458334"
       spacingy="0.26458333"
       empcolor="#3f3fff"
       empopacity="0.25098039"
       color="#3f3fff"
       opacity="0.12549"
       empspacing="5"
       dotted="false"
       gridanglex="30"
       gridanglez="30"
       visible="false" /></sodipodi:namedview><defs
     id="defs1"><linearGradient
       id="linearGradient4"
       inkscape:swatch="gradient"><stop
         style="stop-color:#001e24;stop-opacity:1;"
         offset="0"
         id="stop8" /><stop
         style="stop-color:#003f4b;stop-opacity:1;"
         offset="0.09785938"
         id="stop9" /><stop
         style="stop-color:#002e37;stop-opacity:1;"
         offset="0.90366977"
         id="stop10" /><stop
         style="stop-color:#001e24;stop-opacity:1;"
         offset="1"
         id="stop11" /></linearGradient><style
       id="style1">.cls-1{fill:url(#linear-gradient);}.cls-2{fill:none;stroke:#000;stroke-miterlimit:10;}</style><style
       id="style12804">.cls-1{fill:url(#linear-gradient);}.cls-2{fill:none;stroke:#000;stroke-miterlimit:10;}</style><style
       id="style13280">.cls-1{fill:url(#linear-gradient);}.cls-2{fill:none;stroke:#000;stroke-miterlimit:10;}</style><linearGradient
       id="linear-gradient-1-4"
       x1="77.889999"
       y1="6.5799999"
       x2="906.28003"
       y2="6.5799999"
       gradientUnits="userSpaceOnUse"
       gradientTransform="matrix(0.26458333,0,0,0.26458333,337.49913,199.76997)"><stop
         offset="0.033"
         stop-color="hsl(23.125,88%,51.041666666666664%)"
         id="stop12806-9" /><stop
         offset="0.066"
         stop-color="hsl(26.25,88%,52.083333333333336%)"
         id="stop12808-0" /><stop
         offset="0.126"
         stop-color="hsl(32.5,88%,53.875%)"
         id="stop12810-9" /><stop
         offset="0.19"
         stop-color="hsl(43,88%,51.5%)"
         id="stop12812-2" /><stop
         offset="0.253"
         stop-color="hsl(54,88%,44.8%)"
         id="stop12814-1" /><stop
         offset="0.316"
         stop-color="hsl(72,88%,41.8%)"
         id="stop12816-9" /><stop
         offset="0.38"
         stop-color="hsl(112.5,88%,41%)"
         id="stop12818-5" /><stop
         offset="0.59"
         stop-color="hsl(189.6551724137931,88%,43.862068965517246%)"
         id="stop12820-8" /><stop
         offset="0.79"
         stop-color="hsl(244.82758620689657,88%,57.03448275862068%)"
         id="stop12822-3" /><stop
         offset="1"
         stop-color="hsl(300,88%,43%)"
         id="stop12824-9" /></linearGradient></defs><g
     inkscape:label="Layer 1"
     inkscape:groupmode="layer"
     id="layer1"
     transform="translate(-340.28768,-199.76999)"><g
       id="g14991"><rect
         class="cls-1"
         x="358.10754"
         width="219.18083"
         height="3.4845624"
         id="rect12831-8"
         style="fill:url(#linear-gradient-1-4);stroke-width:0.264583"
         y="199.76999" /><path
         d="m 357.4699,205.78341 c 0,-0.49477 0.0344,-1.15623 0.64029,-1.15358 0.6059,0.003 0.64029,0.60325 0.64029,1.15623 0,0.47625 -0.0344,1.13506 -0.64029,1.13506 -0.6059,0 -0.64029,-0.60589 -0.64029,-1.13771 z m 0.65352,0.92604 c 0.34396,0 0.36248,-0.45243 0.36248,-0.92604 0,-0.4736 -0.0185,-0.94456 -0.36248,-0.94721 -0.34396,-0.003 -0.36248,0.4498 -0.36248,0.94457 0,0.49477 0.008,0.92868 0.36248,0.92868 z"
         id="path12835-3"
         style="fill:#ffffff;stroke-width:0.264583" /><path
         d="m 567.89302,204.66423 h 0.26458 v 1.47372 h 0.26459 v 0.22755 h -0.26459 v 0.54239 h -0.26458 v -0.53975 h -0.81227 v -0.25135 z m -0.5715,1.47637 h 0.5715 v -1.03981 0 z"
         id="path12837-7"
         style="fill:#ffffff;stroke-width:0.264583" /><path
         d="m 568.63121,205.81781 c 0,-0.49477 0.0344,-1.15623 0.64029,-1.15623 0.6059,0 0.64029,0.60325 0.64029,1.15623 0,0.47625 -0.0344,1.13506 -0.64029,1.13506 -0.6059,0 -0.64029,-0.6006 -0.64029,-1.13506 z m 0.62971,0.92869 c 0.34396,0 0.36248,-0.45244 0.36248,-0.92605 0,-0.4736 -0.0185,-0.94456 -0.36248,-0.94456 -0.34396,0 -0.36248,0.44979 -0.36248,0.94456 0,0.49478 0.0317,0.92605 0.36248,0.92605 z"
         id="path12839-9"
         style="fill:#ffffff;stroke-width:0.264583" /><path
         d="m 570.91721,205.81781 c 0,-0.49477 0.0344,-1.15623 0.64029,-1.15623 0.6059,0 0.64029,0.60325 0.64029,1.15623 0,0.47625 -0.0344,1.13506 -0.64029,1.13506 -0.6059,0 -0.64029,-0.6006 -0.64029,-1.13506 z m 0.64029,0.92604 c 0.34131,0 0.36248,-0.45244 0.36248,-0.92604 0,-0.47361 -0.0185,-0.94456 -0.36248,-0.94456 -0.34396,0 -0.36248,0.44979 -0.36248,0.94456 0,0.49477 0.0212,0.92869 0.36248,0.92869 z"
         id="path12841-6"
         style="fill:#ffffff;stroke-width:0.264583" /><path
         d="m 572.43592,205.81781 c 0,-0.49477 0.0344,-1.15623 0.64029,-1.15623 0.60589,0 0.64029,0.60325 0.64029,1.15623 0,0.47625 -0.0344,1.13506 -0.64029,1.13506 -0.6059,0 -0.64029,-0.6006 -0.64029,-1.13506 z m 0.64029,0.92604 c 0.34396,0 0.36248,-0.45244 0.36248,-0.92604 0,-0.47361 -0.0185,-0.94456 -0.36248,-0.94456 -0.34396,0 -0.36248,0.44979 -0.36248,0.94456 0,0.49477 0.0265,0.92869 0.36777,0.92869 z"
         id="path12843-9"
         style="fill:#ffffff;stroke-width:0.264583" /><path
         d="m 573.96521,205.81781 c 0,-0.49477 0.0344,-1.15623 0.64029,-1.15623 0.6059,0 0.64029,0.60325 0.64029,1.15623 0,0.47625 -0.0344,1.13506 -0.64029,1.13506 -0.6059,0 -0.64029,-0.6006 -0.64029,-1.13506 z m 0.64029,0.92869 c 0.34396,0 0.36248,-0.45244 0.36248,-0.92605 0,-0.4736 -0.0185,-0.94456 -0.36248,-0.94456 -0.34396,0 -0.36248,0.44979 -0.36248,0.94456 0,0.49478 0.0212,0.92605 0.36248,0.92605 z"
         id="path12845-5"
         style="fill:#ffffff;stroke-width:0.264583" /><path
         d="m 576.21681,205.89607 h -0.6985 v -0.20903 h 0.6985 v -0.70379 h 0.20902 v 0.6985 h 0.6985 v 0.21432 h -0.6985 v 0.6985 h -0.20902 z"
         id="path12847-5"
         style="fill:#ffffff;stroke-width:0.264583" /><path
         d="m 524.61777,205.64318 h 0.14023 c 0.23813,0 0.34131,-0.17198 0.34131,-0.39687 0,-0.2249 -0.0767,-0.37571 -0.29104,-0.37571 -0.29633,0 -0.32279,0.26458 -0.32279,0.43921 h -0.28046 c 0,-0.38365 0.17992,-0.64823 0.59531,-0.64823 a 0.52916666,0.52916666 0 0 1 0.5768,0.58473 0.46302083,0.46302083 0 0 1 -0.34925,0.48154 v 0 a 0.47889583,0.47889583 0 0 1 0.41539,0.52917 c 0,0.4101 -0.20637,0.69585 -0.63764,0.69585 a 0.59795833,0.59795833 0 0 1 -0.63765,-0.62442 v -0.0291 h 0.28046 c 0,0.20638 0.10054,0.4445 0.35983,0.4445 0.16404,0 0.35719,-0.082 0.35719,-0.46302 A 0.37570833,0.37570833 0 0 0 524.758,205.8522 h -0.14287 z"
         id="path12851-6"
         style="fill:#ffffff;stroke-width:0.264583" /><path
         d="m 525.69198,205.81781 c 0,-0.49477 0.0344,-1.15623 0.64029,-1.15623 0.6059,0 0.64029,0.60325 0.64029,1.15623 0,0.47625 -0.0344,1.13506 -0.64029,1.13506 -0.60589,0 -0.64029,-0.6006 -0.64029,-1.13506 z m 0.64029,0.92604 c 0.34131,0 0.36248,-0.45244 0.36248,-0.92604 0,-0.47361 -0.0185,-0.94456 -0.36248,-0.94456 -0.34396,0 -0.36248,0.44979 -0.36248,0.94456 0,0.49477 0.0212,0.92869 0.36248,0.92869 z"
         id="path12853-3"
         style="fill:#ffffff;stroke-width:0.264583" /><path
         d="m 527.98592,205.81781 c 0,-0.49477 0.0344,-1.15623 0.64029,-1.15623 0.6059,0 0.64029,0.60325 0.64029,1.15623 0,0.47625 -0.0344,1.13506 -0.64029,1.13506 -0.6059,0 -0.64029,-0.6006 -0.64029,-1.13506 z m 0.64029,0.92604 c 0.34396,0 0.36248,-0.45244 0.36248,-0.92604 0,-0.47361 -0.0185,-0.94456 -0.36248,-0.94456 -0.34396,0 -0.37571,0.44979 -0.37571,0.94456 0,0.49477 0.0238,0.92869 0.36777,0.92869 z"
         id="path12855-2"
         style="fill:#ffffff;stroke-width:0.264583" /><path
         d="m 529.50198,205.81781 c 0,-0.49477 0.0344,-1.15623 0.64029,-1.15623 0.6059,0 0.64029,0.60325 0.64029,1.15623 0,0.47625 -0.0344,1.13506 -0.64029,1.13506 -0.60589,0 -0.64029,-0.6006 -0.64029,-1.13506 z m 0.64029,0.92604 c 0.34131,0 0.36248,-0.45244 0.36248,-0.92604 0,-0.47361 -0.0185,-0.94456 -0.36248,-0.94456 -0.34396,0 -0.36248,0.44979 -0.36248,0.94456 0,0.49477 0.0212,0.92869 0.36248,0.92869 z"
         id="path12857-5"
         style="fill:#ffffff;stroke-width:0.264583" /><path
         d="m 531.02598,205.81781 c 0,-0.49477 0.0344,-1.15623 0.64029,-1.15623 0.6059,0 0.64029,0.60325 0.64029,1.15623 0,0.47625 -0.0344,1.13506 -0.64029,1.13506 -0.60589,0 -0.64029,-0.6006 -0.64029,-1.13506 z m 0.64029,0.92604 c 0.34131,0 0.36248,-0.45244 0.36248,-0.92604 0,-0.47361 -0.0185,-0.94456 -0.36248,-0.94456 -0.34396,0 -0.36248,0.44979 -0.36248,0.94456 0,0.49477 0.0212,0.92869 0.36248,0.92869 z"
         id="path12859-2"
         style="fill:#ffffff;stroke-width:0.264583" /><path
         d="m 480.50115,206.91054 h -1.25677 a 1.1985625,1.1985625 0 0 1 0.48418,-0.92075 l 0.18521,-0.15611 a 0.66410416,0.66410416 0 0 0 0.29898,-0.52916 c 0,-0.19315 -0.0847,-0.40217 -0.32808,-0.40217 -0.34661,0 -0.35454,0.35983 -0.35454,0.48419 h -0.28046 c 0,-0.42598 0.17727,-0.71438 0.63764,-0.71438 a 0.55827083,0.55827083 0 0 1 0.60325,0.60061 0.88635416,0.88635416 0 0 1 -0.39423,0.73025 l -0.3175,0.26458 a 0.69849999,0.69849999 0 0 0 -0.24341,0.38365 h 0.96573 z"
         id="path12863-0"
         style="fill:#ffffff;stroke-width:0.264583" /><path
         d="m 480.75515,205.81781 c 0,-0.49477 0.0344,-1.15623 0.64029,-1.15623 0.60589,0 0.64029,0.60325 0.64029,1.15623 0,0.47625 -0.0344,1.13506 -0.64029,1.13506 -0.6059,0 -0.64029,-0.6006 -0.64029,-1.13506 z m 0.64029,0.92604 c 0.34131,0 0.36248,-0.45244 0.36248,-0.92604 0,-0.47361 -0.0185,-0.94456 -0.36248,-0.94456 -0.34396,0 -0.36248,0.44979 -0.36248,0.94456 0,0.49477 0.0212,0.92869 0.36512,0.92869 z"
         id="path12865-2"
         style="fill:#ffffff;stroke-width:0.264583" /><path
         d="m 483.04115,205.81781 c 0,-0.49477 0.0344,-1.15623 0.64029,-1.15623 0.60589,0 0.64823,0.60325 0.64823,1.15623 0,0.47625 -0.0344,1.13506 -0.64029,1.13506 -0.6059,0 -0.64823,-0.6006 -0.64823,-1.13506 z m 0.64029,0.92604 c 0.34396,0 0.36248,-0.45244 0.36248,-0.92604 0,-0.47361 -0.0185,-0.94456 -0.36248,-0.94456 -0.34396,0 -0.36248,0.44979 -0.36248,0.94456 0,0.49477 0.0212,0.92869 0.36512,0.92869 z"
         id="path12867-5"
         style="fill:#ffffff;stroke-width:0.264583" /><path
         d="m 484.56515,205.81781 c 0,-0.49477 0.0344,-1.15623 0.64029,-1.15623 0.60589,0 0.64029,0.60325 0.64029,1.15623 0,0.47625 -0.0344,1.13506 -0.64029,1.13506 -0.6059,0 -0.64029,-0.6006 -0.64029,-1.13506 z m 0.64029,0.92604 c 0.34131,0 0.36248,-0.45244 0.36248,-0.92604 0,-0.47361 -0.0185,-0.94456 -0.36248,-0.94456 -0.34396,0 -0.36248,0.44979 -0.36248,0.94456 0,0.49477 0.0159,0.92869 0.36512,0.92869 z"
         id="path12869-6"
         style="fill:#ffffff;stroke-width:0.264583" /><path
         d="m 486.08915,205.81781 c 0,-0.49477 0.0344,-1.15623 0.64029,-1.15623 0.60589,0 0.64029,0.60325 0.64029,1.15623 0,0.47625 -0.0344,1.13506 -0.64029,1.13506 -0.6059,0 -0.64029,-0.6006 -0.64029,-1.13506 z m 0.64029,0.92604 c 0.34131,0 0.36248,-0.45244 0.36248,-0.92604 0,-0.47361 -0.0185,-0.94456 -0.36248,-0.94456 -0.34396,0 -0.36248,0.44979 -0.36248,0.94456 0,0.49477 0.0212,0.92869 0.36512,0.92869 z"
         id="path12871-4"
         style="fill:#ffffff;stroke-width:0.264583" /><path
         d="m 446.32227,205.02141 c 0.28311,-0.0159 0.5424,-0.0503 0.55563,-0.36777 h 0.1905 v 2.24631 h -0.26459 v -1.68804 h -0.47889 z"
         id="path12875-1"
         style="fill:#ffffff;stroke-width:0.264583" /><path
         d="m 447.75367,205.80987 c 0,-0.49477 0.0344,-1.15623 0.64029,-1.15358 0.6059,0.003 0.64029,0.60325 0.64029,1.15623 0,0.47625 -0.0344,1.13506 -0.64029,1.13506 -0.6059,0 -0.64029,-0.60325 -0.64029,-1.13771 z m 0.64029,0.92604 c 0.34396,0 0.36248,-0.45243 0.36248,-0.92604 0,-0.4736 -0.0185,-0.94456 -0.36248,-0.94456 -0.34396,0 -0.36248,0.44979 -0.36248,0.94456 0,0.49477 0.0212,0.93663 0.36248,0.93663 z"
         id="path12877-9"
         style="fill:#ffffff;stroke-width:0.264583" /><path
         d="m 450.03967,205.80987 c 0,-0.49477 0.0344,-1.15623 0.64029,-1.15358 0.6059,0.003 0.64029,0.60325 0.64029,1.15623 0,0.47625 -0.0344,1.13506 -0.64029,1.13506 -0.6059,0 -0.64029,-0.60325 -0.64029,-1.13771 z m 0.64029,0.92604 c 0.34131,0 0.36248,-0.45243 0.36248,-0.92604 0,-0.4736 -0.0185,-0.94456 -0.36248,-0.94456 -0.34396,0 -0.36248,0.44979 -0.36248,0.94456 0,0.49477 0.0212,0.93663 0.36248,0.93663 z"
         id="path12879-8"
         style="fill:#ffffff;stroke-width:0.264583" /><path
         d="m 451.56367,205.81252 c 0,-0.49477 0.0344,-1.15623 0.64029,-1.15623 0.6059,0 0.64029,0.60325 0.64029,1.15623 0,0.47625 -0.0344,1.13506 -0.64029,1.13506 -0.6059,0 -0.64029,-0.60325 -0.64029,-1.13506 z m 0.64029,0.92604 c 0.34396,0 0.36248,-0.45244 0.36248,-0.92604 0,-0.47361 -0.0185,-0.94457 -0.36248,-0.94721 -0.34396,-0.003 -0.36248,0.44979 -0.36248,0.94456 0,0.49477 0.0212,0.93663 0.36248,0.93663 z"
         id="path12881-1"
         style="fill:#ffffff;stroke-width:0.264583" /><path
         d="m 453.08767,205.81252 c 0,-0.49477 0.0344,-1.15623 0.64029,-1.15359 0.6059,0.003 0.64029,0.60325 0.64029,1.15623 0,0.47625 -0.0344,1.13507 -0.64029,1.13507 -0.6059,0 -0.64029,-0.6059 -0.64029,-1.13771 z m 0.64029,0.92604 c 0.34396,0 0.36248,-0.45244 0.36248,-0.92604 0,-0.47361 -0.0185,-0.94457 -0.36248,-0.94721 -0.34396,-0.003 -0.35454,0.45244 -0.35454,0.94721 0,0.49477 0,0.93398 0.35454,0.93398 z"
         id="path12883-4"
         style="fill:#ffffff;stroke-width:0.264583" /><path
         d="m 432.29936,205.70139 a 0.46566666,0.46566666 0 0 1 -0.32544,-0.47889 0.57414583,0.57414583 0 0 1 1.14829,0 0.46566666,0.46566666 0 0 1 -0.32808,0.47889 0.52916666,0.52916666 0 0 1 0.39687,0.57679 0.64558333,0.64558333 0 1 1 -1.28852,0 0.52916666,0.52916666 0 0 1 0.39688,-0.57679 z m 0.24606,1.03188 c 0.26458,0 0.36512,-0.19844 0.36512,-0.46302 0,-0.26459 -0.10583,-0.46302 -0.36512,-0.46302 -0.25929,0 -0.36513,0.19843 -0.36513,0.46302 0,0.26458 0.10584,0.46302 0.36777,0.46302 z m -0.29369,-1.50548 c 0,0.20902 0.0873,0.36777 0.29633,0.36777 0.20903,0 0.29634,-0.15875 0.29634,-0.36777 0,-0.20902 -0.0926,-0.36777 -0.29634,-0.36777 -0.20372,0 -0.29633,0.1561 -0.29633,0.36777 z"
         id="path12887-1"
         style="fill:#ffffff;stroke-width:0.264583" /><path
         d="m 434.19113,205.80723 c 0,-0.49478 0.0344,-1.15359 0.64029,-1.15359 0.60589,0 0.64029,0.60325 0.64029,1.15623 0,0.47625 -0.0344,1.13506 -0.64029,1.13506 -0.6059,0 -0.64029,-0.60589 -0.64029,-1.1377 z m 0.64029,0.92604 c 0.34396,0 0.36248,-0.45244 0.36248,-0.92604 0,-0.47361 -0.0185,-0.94457 -0.36248,-0.94721 -0.34396,-0.003 -0.36248,0.44979 -0.36248,0.94456 0,0.49477 0.0212,0.94192 0.36512,0.94192 z"
         id="path12889-8"
         style="fill:#ffffff;stroke-width:0.264583" /><path
         d="m 435.71513,205.80723 c 0,-0.49478 0.0344,-1.15623 0.64029,-1.15359 0.60589,0.003 0.64029,0.60325 0.64029,1.15623 0,0.47625 -0.0344,1.13506 -0.64029,1.13506 -0.6059,0 -0.64029,-0.60589 -0.64029,-1.1377 z m 0.64029,0.92604 c 0.34396,0 0.36248,-0.45244 0.36248,-0.92604 0,-0.47361 -0.0185,-0.94457 -0.36248,-0.94457 -0.34396,0 -0.36248,0.44979 -0.36248,0.94457 0,0.49477 0.0212,0.93927 0.36512,0.93927 z"
         id="path12891-4"
         style="fill:#ffffff;stroke-width:0.264583" /><path
         d="m 437.23384,205.80723 c 0,-0.49478 0.0344,-1.15623 0.64029,-1.15359 0.60589,0.003 0.64029,0.60325 0.64029,1.15623 0,0.47625 -0.0344,1.13506 -0.64029,1.13506 -0.6059,0 -0.64029,-0.60325 -0.64029,-1.1377 z m 0.64029,0.92604 c 0.34131,0 0.36248,-0.45244 0.36248,-0.92604 0,-0.47361 -0.0185,-0.94457 -0.36248,-0.94457 -0.34396,0 -0.36248,0.44979 -0.36248,0.94457 0,0.49477 0.0265,0.93927 0.37041,0.93927 z"
         id="path12893-4"
         style="fill:#ffffff;stroke-width:0.264583" /><path
         d="m 417.52502,205.18545 a 0.2936875,0.2936875 0 0 0 -0.29633,-0.33072 c -0.37571,0 -0.39688,0.55827 -0.39688,0.67468 v 0.17727 0 a 0.48947916,0.48947916 0 0 1 0.42863,-0.25135 c 0.39158,0 0.58737,0.2884 0.58737,0.71173 0,0.42333 -0.21695,0.76729 -0.635,0.76729 -0.62177,0 -0.66675,-0.6006 -0.66675,-1.05833 0,-0.51329 0.0317,-1.22502 0.68263,-1.22502 a 0.52916666,0.52916666 0 0 1 0.56885,0.52916 z m -0.30427,1.54253 c 0.28046,0 0.35454,-0.28575 0.35454,-0.52917 0,-0.24342 -0.0582,-0.52917 -0.35454,-0.52917 -0.29633,0 -0.35983,0.30427 -0.35983,0.54769 0,0.24342 0.0794,0.51065 0.35983,0.51065 z"
         id="path12897-1"
         style="fill:#ffffff;stroke-width:0.264583" /><path
         d="m 418.85059,205.80193 c 0,-0.49477 0.0344,-1.15623 0.64029,-1.15623 0.60589,0 0.64029,0.60325 0.64029,1.15623 0,0.47625 -0.0344,1.13507 -0.64029,1.13507 -0.6059,0 -0.64029,-0.60061 -0.64029,-1.13507 z m 0.64029,0.92605 c 0.34131,0 0.36248,-0.45244 0.36248,-0.92605 0,-0.4736 -0.0185,-0.94456 -0.36248,-0.9472 -0.34396,-0.003 -0.36248,0.44979 -0.36248,0.94456 0,0.49477 0.0185,0.92869 0.36248,0.92869 z"
         id="path12899-7"
         style="fill:#ffffff;stroke-width:0.264583" /><path
         d="m 420.37459,205.80193 c 0,-0.49477 0.0344,-1.15623 0.64029,-1.15358 0.60589,0.003 0.64029,0.60325 0.64029,1.15623 0,0.47625 -0.0344,1.13506 -0.64029,1.13506 -0.6059,0 -0.64029,-0.60325 -0.64029,-1.13771 z m 0.64029,0.92605 c 0.34131,0 0.36248,-0.45244 0.36248,-0.92605 0,-0.4736 -0.0185,-0.94456 -0.36248,-0.9472 -0.34396,-0.003 -0.36248,0.44979 -0.36248,0.94456 0,0.49477 0.0185,0.93133 0.36248,0.93133 z"
         id="path12901-3"
         style="fill:#ffffff;stroke-width:0.264583" /><path
         d="m 421.888,205.80458 c 0,-0.49477 0.0344,-1.15623 0.64029,-1.15358 0.6059,0.003 0.6403,0.60325 0.6403,1.15623 0,0.47625 -0.0344,1.13506 -0.6403,1.13506 -0.60589,0 -0.64029,-0.6059 -0.64029,-1.13771 z m 0.64029,0.92604 c 0.34396,0 0.36248,-0.45244 0.36248,-0.92604 0,-0.4736 -0.0185,-0.94456 -0.36248,-0.94456 -0.34395,0 -0.36248,0.44979 -0.36248,0.94456 0,0.49477 0.0291,0.92604 0.37307,0.92604 z"
         id="path12903-7"
         style="fill:#ffffff;stroke-width:0.264583" /><path
         d="m 401.58917,204.64306 h 0.26458 v 1.47637 h 0.26459 v 0.22755 h -0.26459 v 0.54239 h -0.26458 v -0.54239 h -0.81227 v -0.25136 z m -0.5715,1.47637 h 0.5715 v -1.03716 0 z"
         id="path12907-1"
         style="fill:#ffffff;stroke-width:0.264583" /><path
         d="m 403.08936,205.79929 c 0,-0.49477 0.0344,-1.15623 0.64029,-1.15359 0.60589,0.003 0.64029,0.60325 0.64029,1.15623 0,0.47625 -0.0344,1.13507 -0.64029,1.13507 -0.6059,0 -0.64029,-0.6059 -0.64029,-1.13771 z m 0.64029,0.92604 c 0.34131,0 0.36248,-0.45244 0.36248,-0.92604 0,-0.47361 -0.0185,-0.94721 -0.36248,-0.94721 -0.34396,0 -0.36248,0.45244 -0.36248,0.94721 0,0.49477 0.0185,0.92604 0.36248,0.92604 z"
         id="path12909-6"
         style="fill:#ffffff;stroke-width:0.264583" /><path
         d="m 404.61336,205.79929 c 0,-0.49477 0.0344,-1.15623 0.64029,-1.15359 0.60589,0.003 0.64029,0.60325 0.64029,1.15623 0,0.47625 -0.0344,1.13507 -0.64029,1.13507 -0.6059,0 -0.64029,-0.6059 -0.64029,-1.13771 z m 0.64029,0.92604 c 0.34131,0 0.36248,-0.45244 0.36248,-0.92604 0,-0.47361 -0.0185,-0.94456 -0.36248,-0.94456 -0.34396,0 -0.36248,0.44979 -0.36248,0.94456 0,0.49477 0.0185,0.92604 0.36248,0.92604 z"
         id="path12911-3"
         style="fill:#ffffff;stroke-width:0.264583" /><path
         d="m 406.13736,205.79929 c 0,-0.49477 0.0344,-1.15623 0.64029,-1.15359 0.60589,0.003 0.64029,0.60325 0.64029,1.15623 0,0.47625 -0.0344,1.13507 -0.64029,1.13507 -0.6059,0 -0.64029,-0.6059 -0.64029,-1.13771 z m 0.64029,0.92604 c 0.34396,0 0.36248,-0.45244 0.36248,-0.92604 0,-0.47361 -0.0185,-0.94456 -0.36248,-0.94456 -0.34396,0 -0.36248,0.44979 -0.36248,0.94456 0,0.49477 0.0185,0.92604 0.36248,0.92604 z"
         id="path12913-1"
         style="fill:#ffffff;stroke-width:0.264583" /><path
         d="m 386.73017,206.88673 h -1.25677 a 1.1985625,1.1985625 0 0 1 0.48419,-0.93398 l 0.1852,-0.15611 a 0.66410416,0.66410416 0 0 0 0.29898,-0.52916 c 0,-0.19315 -0.0847,-0.40217 -0.32808,-0.40217 -0.3466,0 -0.35454,0.35719 -0.35454,0.48419 h -0.28046 c 0,-0.42598 0.17727,-0.71438 0.63765,-0.71438 a 0.55827083,0.55827083 0 0 1 0.60325,0.60061 0.88635416,0.88635416 0 0 1 -0.39423,0.73818 l -0.3175,0.26459 a 0.69849999,0.69849999 0 0 0 -0.24342,0.38364 h 0.96573 z"
         id="path12917-6"
         style="fill:#ffffff;stroke-width:0.264583" /><path
         d="m 387.75675,205.794 c 0,-0.49477 0.0344,-1.15623 0.64029,-1.15623 0.6059,0 0.6403,0.60325 0.6403,1.15623 0,0.47625 -0.0344,1.13506 -0.6403,1.13506 -0.60589,0 -0.64029,-0.60061 -0.64029,-1.13506 z m 0.64029,0.92604 c 0.34132,0 0.36248,-0.45244 0.36248,-0.92604 0,-0.47361 -0.0185,-0.94457 -0.36248,-0.94721 -0.34395,-0.003 -0.3757,0.45244 -0.3757,0.94721 0,0.49477 0.0212,0.92604 0.36512,0.92604 z"
         id="path12919-8"
         style="fill:#ffffff;stroke-width:0.264583" /><path
         d="m 389.27017,205.794 c 0,-0.49477 0.0344,-1.15623 0.64029,-1.15359 0.6059,0.003 0.64029,0.60325 0.64029,1.15623 0,0.47625 -0.0344,1.13506 -0.64029,1.13506 -0.60589,0 -0.64029,-0.60325 -0.64029,-1.1377 z m 0.64029,0.92604 c 0.34131,0 0.36248,-0.45244 0.36248,-0.92604 0,-0.47361 -0.0185,-0.94457 -0.36248,-0.94457 -0.34396,0 -0.36248,0.4498 -0.36248,0.94457 0,0.49477 0.0185,0.92868 0.36248,0.92868 z"
         id="path12921-7"
         style="fill:#ffffff;stroke-width:0.264583" /><path
         d="m 390.79417,205.794 c 0,-0.49477 0.0344,-1.15623 0.64029,-1.15359 0.6059,0.003 0.64029,0.60325 0.64029,1.15623 0,0.47625 -0.0344,1.13506 -0.64029,1.13506 -0.60589,0 -0.64029,-0.60325 -0.64029,-1.1377 z m 0.64029,0.92604 c 0.34396,0 0.36248,-0.45244 0.36248,-0.92604 0,-0.47361 -0.0185,-0.94457 -0.36248,-0.94457 -0.34396,0 -0.36248,0.4498 -0.36248,0.94457 0,0.49477 0.0212,0.92868 0.36248,0.92868 z"
         id="path12923-6"
         style="fill:#ffffff;stroke-width:0.264583" /><path
         d="m 370.20959,205.00289 c 0.2831,-0.0159 0.54239,-0.0503 0.55562,-0.36777 h 0.1905 v 2.24631 h -0.26458 v -1.68804 h -0.4789 z"
         id="path12927-9"
         style="fill:#ffffff;stroke-width:0.264583" /><path
         d="m 372.41092,205.79135 c 0,-0.49477 0.0344,-1.15623 0.64029,-1.15623 0.6059,0 0.64029,0.60325 0.64029,1.15623 0,0.47625 -0.0344,1.13506 -0.64029,1.13506 -0.60589,0 -0.64029,-0.60325 -0.64029,-1.13506 z m 0.64029,0.92604 c 0.34131,0 0.36248,-0.45244 0.36248,-0.92604 0,-0.4736 -0.0185,-0.94456 -0.36248,-0.94721 -0.34396,-0.003 -0.37571,0.44979 -0.37571,0.94721 0,0.49742 0.0238,0.92604 0.36777,0.92604 z"
         id="path12929-9"
         style="fill:#ffffff;stroke-width:0.264583" /><path
         d="m 373.92698,205.79135 c 0,-0.49477 0.0344,-1.15358 0.64029,-1.15358 0.6059,0 0.6403,0.60325 0.6403,1.15623 0,0.47625 -0.0344,1.13506 -0.6403,1.13506 -0.60589,0 -0.64029,-0.6059 -0.64029,-1.13771 z m 0.64029,0.92604 c 0.34132,0 0.36248,-0.45244 0.36248,-0.92604 0,-0.4736 -0.0185,-0.94456 -0.36248,-0.94721 -0.34395,-0.003 -0.36248,0.44979 -0.36248,0.94456 0,0.49478 0.0185,0.92869 0.36248,0.92869 z"
         id="path12931-1"
         style="fill:#ffffff;stroke-width:0.264583" /><path
         d="m 375.45098,205.79135 c 0,-0.49477 0.0344,-1.15623 0.64029,-1.15358 0.6059,0.003 0.6403,0.60325 0.6403,1.15623 0,0.47625 -0.0344,1.13506 -0.6403,1.13506 -0.60589,0 -0.64029,-0.6059 -0.64029,-1.13771 z m 0.64029,0.92604 c 0.34396,0 0.36248,-0.45244 0.36248,-0.92604 0,-0.4736 -0.0185,-0.94456 -0.36248,-0.94456 -0.34395,0 -0.36248,0.44979 -0.36248,0.94456 0,0.49477 0.0212,0.92604 0.36248,0.92604 z"
         id="path12933-4"
         style="fill:#ffffff;stroke-width:0.264583" /><g
         id="g14855"><polyline
           class="cls-2"
           points="78 0 78 13.4 906.28 13.4 906.28 0"
           id="polyline12833-4"
           style="fill:none;stroke:#ffffff;stroke-miterlimit:10"
           transform="matrix(0.26458333,0,0,0.26458333,337.48592,199.76999)" /><line
           class="cls-2"
           x1="528.2373"
           x2="528.2373"
           y2="203.62177"
           id="line12849-3"
           y1="199.86732"
           style="fill:none;stroke:#ffffff;stroke-width:0.264583;stroke-miterlimit:10" /><line
           class="cls-2"
           x1="483.30307"
           x2="483.30307"
           y2="203.62177"
           id="line12861-7"
           y1="199.86732"
           style="fill:none;stroke:#ffffff;stroke-width:0.264583;stroke-miterlimit:10" /><line
           class="cls-2"
           x1="450.33865"
           x2="450.33865"
           y2="203.62177"
           id="line12873-8"
           y1="199.86732"
           style="fill:none;stroke:#ffffff;stroke-width:0.264583;stroke-miterlimit:10" /><line
           class="cls-2"
           x1="435.31827"
           x2="435.31827"
           y2="203.62177"
           id="line12885-9"
           y1="199.86732"
           style="fill:none;stroke:#ffffff;stroke-width:0.264583;stroke-miterlimit:10" /><line
           class="cls-2"
           x1="419.87982"
           x2="419.87982"
           y2="203.62177"
           id="line12895-7"
           y1="199.86732"
           style="fill:none;stroke:#ffffff;stroke-width:0.264583;stroke-miterlimit:10" /><line
           class="cls-2"
           x1="404.44138"
           x2="404.44138"
           y2="203.62177"
           id="line12905-7"
           y1="199.86732"
           style="fill:none;stroke:#ffffff;stroke-width:0.264583;stroke-miterlimit:10" /><line
           class="cls-2"
           x1="389.00031"
           x2="389.00031"
           y2="203.62177"
           id="line12915-2"
           y1="199.86732"
           style="fill:none;stroke:#ffffff;stroke-width:0.264583;stroke-miterlimit:10" /><line
           class="cls-2"
           x1="373.56186"
           x2="373.56186"
           y2="203.62177"
           id="line12925-6"
           y1="199.86732"
           style="fill:none;stroke:#ffffff;stroke-width:0.264583;stroke-miterlimit:10" /><line
           class="cls-2"
           x1="365.63495"
           x2="365.63495"
           y2="203.62177"
           id="line12935-5"
           y1="199.86732"
           style="fill:none;stroke:#ffffff;stroke-width:0.264583;stroke-miterlimit:10" /></g><path
         d="m 363.56325,204.67481 h 1.00277 v 0.24871 h -0.79375 l -0.0926,0.65087 v 0 a 0.50799999,0.50799999 0 0 1 0.39423,-0.16933 c 0.33602,0 0.56356,0.26458 0.56356,0.74083 0,0.41804 -0.18521,0.76994 -0.65352,0.76994 a 0.58472916,0.58472916 0 0 1 -0.61648,-0.62177 h 0.28046 c 0,0.11642 0.045,0.41275 0.34131,0.41275 0.29634,0 0.36777,-0.35454 0.36777,-0.58473 0,-0.23019 -0.0926,-0.508 -0.37571,-0.508 a 0.333375,0.333375 0 0 0 -0.3175,0.2196 h -0.24077 z"
         id="path12937-6"
         style="fill:#ffffff;stroke-width:0.264583" /><path
         d="m 364.8994,205.78606 c 0,-0.49477 0.0344,-1.15623 0.64029,-1.15358 0.6059,0.003 0.64029,0.60325 0.64029,1.15622 0,0.47625 -0.0344,1.13507 -0.64029,1.13507 -0.6059,0 -0.64029,-0.60325 -0.64029,-1.13771 z m 0.64029,0.92604 c 0.34131,0 0.36248,-0.45244 0.36248,-0.92604 0,-0.47361 -0.0185,-0.94456 -0.36248,-0.94456 -0.34396,0 -0.36248,0.44979 -0.36248,0.94456 0,0.49477 0.0185,0.92604 0.35454,0.92604 z"
         id="path12939-4"
         style="fill:#ffffff;stroke-width:0.264583" /><path
         d="m 366.4234,205.78606 c 0,-0.49477 0.0344,-1.15623 0.64029,-1.15358 0.6059,0.003 0.64029,0.60325 0.64029,1.15622 0,0.47625 -0.0344,1.13507 -0.64029,1.13507 -0.6059,0 -0.64029,-0.60325 -0.64029,-1.13771 z m 0.64029,0.92604 c 0.34131,0 0.36248,-0.45244 0.36248,-0.92604 0,-0.47361 -0.0185,-0.94456 -0.36248,-0.94456 -0.34396,0 -0.36248,0.44979 -0.36248,0.94456 0,0.49477 0.0185,0.92869 0.36248,0.92869 z"
         id="path12941-8"
         style="fill:#ffffff;stroke-width:0.264583" /><path
         d="m 340.93326,200.78808 h 0.46302 l 0.59532,2.25425 h -0.381 l -0.14023,-0.55563 h -0.65352 l -0.15082,0.55563 h -0.37835 z m 0.48154,1.42081 -0.26458,-1.11654 v 0 l -0.26458,1.11654 z"
         id="path12943-3"
         style="fill:#ffffff;stroke-width:0.264583" /><path
         d="m 342.11066,200.78808 h 0.36248 v 1.96056 h 0.87577 v 0.29369 h -1.23825 z"
         id="path12945-0"
         style="fill:#ffffff;stroke-width:0.264583" /><path
         d="m 343.6426,201.09235 h -0.52917 v -0.30427 h 1.40758 v 0.30427 h -0.52916 v 1.94998 h -0.3519 z"
         id="path12947-6"
         style="fill:#ffffff;stroke-width:0.264583" /><path
         d="m 344.72474,200.78808 h 0.36248 v 2.25425 h -0.36248 z"
         id="path12949-9"
         style="fill:#ffffff;stroke-width:0.264583" /><path
         d="m 345.81747,201.09235 h -0.52917 v -0.30427 h 1.4314 v 0.30427 h -0.52917 v 1.94998 h -0.3757 z"
         id="path12951-0"
         style="fill:#ffffff;stroke-width:0.264583" /><path
         d="m 347.24887,200.78808 v 1.62454 c 0,0.28575 0.11377,0.41275 0.33337,0.41275 0.21961,0 0.33073,-0.127 0.33073,-0.41275 v -1.62454 h 0.36248 v 1.5875 c 0,0.52917 -0.26458,0.71437 -0.69321,0.71437 -0.42862,0 -0.69585,-0.1905 -0.69585,-0.71437 v -1.5875 z"
         id="path12953-9"
         style="fill:#ffffff;stroke-width:0.264583" /><path
         d="m 348.61941,200.78808 h 0.64294 c 0.71173,0 0.79375,0.46302 0.79375,1.13242 0,0.66939 -0.09,1.13241 -0.79375,1.13241 h -0.64294 z m 0.36248,1.98967 h 0.30162 c 0.29898,0 0.42069,-0.1958 0.42334,-0.8599 0.003,-0.6641 -0.11377,-0.8546 -0.42334,-0.8546 h -0.30162 z"
         id="path12955-8"
         style="fill:#ffffff;stroke-width:0.264583" /><path
         d="m 350.38683,200.79073 h 1.22502 v 0.30427 h -0.86519 v 0.62441 h 0.81227 v 0.30957 h -0.81227 v 0.72231 h 0.889 v 0.30427 h -1.25148 z"
         id="path12957-2"
         style="fill:#ffffff;stroke-width:0.264583" /><path
         d="m 353.31047,200.79073 a 2.6775833,2.6775833 0 0 0 -0.36248,1.42345 2.76225,2.76225 0 0 0 0.36248,1.42611 h -0.24342 a 2.4209375,2.4209375 0 0 1 0,-2.84956 z"
         id="path12959-7"
         style="fill:#ffffff;stroke-width:0.264583" /><path
         d="m 353.58035,201.603 h -0.23813 v -0.26459 h 0.23813 v -0.14816 c 0,-0.3228 0.1561,-0.42598 0.43391,-0.42598 a 1.476375,1.476375 0 0 1 0.18786,0 v 0.26458 h -0.0952 c -0.127,0 -0.18521,0.0476 -0.18521,0.1614 v 0.15875 h 0.28046 v 0.26458 h -0.28046 v 1.45256 h -0.34396 z"
         id="path12961-7"
         style="fill:#ffffff;stroke-width:0.264583" /><path
         d="m 354.34252,201.35164 h 0.23548 v -0.48683 h 0.34396 v 0.48683 h 0.29104 v 0.26459 h -0.29368 v 1.01864 c 0,0.13229 0.037,0.17992 0.1561,0.17992 a 0.66410416,0.66410416 0 0 0 0.12435,0 v 0.26458 a 1.1297708,1.1297708 0 0 1 -0.26458,0.0291 c -0.23283,0 -0.3466,-0.0635 -0.3466,-0.41275 v -1.05834 h -0.23548 z"
         id="path12963-3"
         style="fill:#ffffff;stroke-width:0.264583" /><path
         d="m 355.213,203.64293 a 2.6775833,2.6775833 0 0 0 0.36248,-1.4261 2.7569583,2.7569583 0 0 0 -0.36248,-1.42346 h 0.24342 a 2.4235833,2.4235833 0 0 1 0,2.84956 z"
         id="path12965-1"
         style="fill:#ffffff;stroke-width:0.264583" /></g></g></svg>
