<?xml version="1.0" encoding="UTF-8" standalone="no"?>
<!-- Created with Inkscape (http://www.inkscape.org/) -->

<svg
   width="9.3502064in"
   height="0.27895889in"
   viewBox="0 0 237.49524 7.0855557"
   version="1.1"
   id="svg1"
   xml:space="preserve"
   inkscape:version="1.2.2 (b0a8486541, 2022-12-01)"
   sodipodi:docname="icons-and-images.svg"
   xmlns:inkscape="http://www.inkscape.org/namespaces/inkscape"
   xmlns:sodipodi="http://sodipodi.sourceforge.net/DTD/sodipodi-0.dtd"
   xmlns="http://www.w3.org/2000/svg"
   xmlns:svg="http://www.w3.org/2000/svg"><style
     id="style20">
.measure-arrow
{
}
.measure-label
{

}
.measure-line
{
}</style><sodipodi:namedview
     id="namedview1"
     pagecolor="#ffffff"
     bordercolor="#353535"
     borderopacity="1"
     inkscape:showpageshadow="0"
     inkscape:pageopacity="0"
     inkscape:pagecheckerboard="0"
     inkscape:deskcolor="#a8a8a8"
     inkscape:document-units="mm"
     inkscape:zoom="1.8087721"
     inkscape:cx="2524.3645"
     inkscape:cy="768.20072"
     inkscape:window-width="3321"
     inkscape:window-height="1411"
     inkscape:window-x="3831"
     inkscape:window-y="338"
     inkscape:window-maximized="1"
     inkscape:current-layer="layer1"
     showgrid="false"><inkscape:grid
       id="grid20"
       units="px"
       originx="249.35526"
       originy="8.4686694"
       spacingx="0.26458334"
       spacingy="0.26458333"
       empcolor="#3f3fff"
       empopacity="0.25098039"
       color="#3f3fff"
       opacity="0.12549"
       empspacing="5"
       dotted="false"
       gridanglex="30"
       gridanglez="30"
       visible="false" /></sodipodi:namedview><defs
     id="defs1"><linearGradient
       id="linearGradient4"
       inkscape:swatch="gradient"><stop
         style="stop-color:#001e24;stop-opacity:1;"
         offset="0"
         id="stop8" /><stop
         style="stop-color:#003f4b;stop-opacity:1;"
         offset="0.09785938"
         id="stop9" /><stop
         style="stop-color:#002e37;stop-opacity:1;"
         offset="0.90366977"
         id="stop10" /><stop
         style="stop-color:#001e24;stop-opacity:1;"
         offset="1"
         id="stop11" /></linearGradient><style
       id="style1">.cls-1{fill:url(#linear-gradient);}.cls-2{fill:none;stroke:#000;stroke-miterlimit:10;}</style><style
       id="style12804">.cls-1{fill:url(#linear-gradient);}.cls-2{fill:none;stroke:#000;stroke-miterlimit:10;}</style><style
       id="style13280">.cls-1{fill:url(#linear-gradient);}.cls-2{fill:none;stroke:#000;stroke-miterlimit:10;}</style><linearGradient
       id="linear-gradient-2-9"
       x1="92.32"
       y1="6.5799999"
       x2="920.71997"
       y2="6.5799999"
       gradientUnits="userSpaceOnUse"
       gradientTransform="matrix(0.26458333,0,0,0.26458333,333.68123,182.1247)"><stop
         offset="0.033"
         stop-color="hsl(23, 88%, 51%)"
         id="stop13282-2" /><stop
         offset="0.066"
         stop-color="hsl(26, 88%, 52%)"
         id="stop13284-3" /><stop
         offset="0.126"
         stop-color="hsl(32, 88%, 54%)"
         id="stop13286-1" /><stop
         offset="0.19"
         stop-color="hsl(43, 88%, 53%)"
         id="stop13288-0" /><stop
         offset="0.253"
         stop-color="hsl(54, 88%, 45%)"
         id="stop13290-6" /><stop
         offset="0.316"
         stop-color="hsl(72, 88%, 42%)"
         id="stop13292-3" /><stop
         offset="0.38"
         stop-color="hsl(112, 88%, 41%)"
         id="stop13294-6" /><stop
         offset="0.59"
         stop-color="hsl(189, 88%, 44%)"
         id="stop13296-2" /><stop
         offset="0.79"
         stop-color="hsl(244, 88%, 57%)"
         id="stop13298-0" /><stop
         offset="1"
         stop-color="hsl(300, 88%, 43%)"
         id="stop13300-1" /></linearGradient></defs><g
     inkscape:label="Layer 1"
     inkscape:groupmode="layer"
     id="layer1"
     transform="translate(-339.90975,-182.12468)"><g
       id="g14920"
       inkscape:export-filename="alt_legend_m_darkmode.png"
       inkscape:export-xdpi="140.71"
       inkscape:export-ydpi="140.71"><path
         d="m 357.47784,188.04078 c 0,-0.49477 0.0344,-1.15623 0.64029,-1.15358 0.6059,0.003 0.64029,0.60325 0.64029,1.15623 0,0.47625 -0.0344,1.13506 -0.64029,1.13506 -0.60589,0 -0.64029,-0.60589 -0.64029,-1.13771 z m 0.64029,0.92604 c 0.34396,0 0.36248,-0.45243 0.36248,-0.92604 0,-0.4736 -0.0185,-0.94456 -0.36248,-0.94721 -0.34396,-0.003 -0.37571,0.45244 -0.37571,0.94721 0,0.49477 0.0265,0.92604 0.36777,0.92604 z"
         id="path13311-1"
         style="fill:#ffffff;stroke-width:0.264583" /><path
         d="m 567.19717,187.28937 c 0.2831,-0.0159 0.5424,-0.0503 0.55563,-0.36777 h 0.1905 v 2.24631 h -0.26459 v -1.68804 h -0.47889 z"
         id="path13313-3"
         style="fill:#ffffff;stroke-width:0.264583" /><path
         d="m 569.89857,189.16791 h -1.25677 a 1.1985625,1.1985625 0 0 1 0.48418,-0.92075 l 0.18521,-0.15611 a 0.66410416,0.66410416 0 0 0 0.29898,-0.52916 c 0,-0.19315 -0.0847,-0.40217 -0.32808,-0.40217 -0.34661,0 -0.35454,0.35983 -0.35454,0.48419 h -0.28046 c 0,-0.42598 0.17727,-0.71438 0.63764,-0.71438 a 0.55827083,0.55827083 0 0 1 0.60325,0.60061 0.88635416,0.88635416 0 0 1 -0.39423,0.73818 l -0.3175,0.26459 a 0.69849999,0.69849999 0 0 0 -0.24341,0.38364 h 0.96573 z"
         id="path13315-6"
         style="fill:#ffffff;stroke-width:0.264583" /><path
         d="m 570.91457,188.07518 c 0,-0.49477 0.0344,-1.15623 0.64029,-1.15623 0.60589,0 0.64029,0.60325 0.64029,1.15623 0,0.47625 -0.0344,1.13506 -0.64029,1.13506 -0.6059,0 -0.64029,-0.6006 -0.64029,-1.13506 z m 0.64029,0.92604 c 0.34131,0 0.36248,-0.45244 0.36248,-0.92604 0,-0.47361 -0.0185,-0.94456 -0.36248,-0.94456 -0.34396,0 -0.36248,0.44979 -0.36248,0.94456 0,0.49477 0.0212,0.92869 0.36512,0.92869 z"
         id="path13317-9"
         style="fill:#ffffff;stroke-width:0.264583" /><path
         d="m 572.44121,188.07518 c 0,-0.49477 0.0344,-1.15623 0.64029,-1.15623 0.6059,0 0.6403,0.60325 0.6403,1.15623 0,0.47625 -0.0344,1.13506 -0.6403,1.13506 -0.60589,0 -0.64029,-0.6006 -0.64029,-1.13506 z m 0.64029,0.92604 c 0.34396,0 0.36248,-0.45244 0.36248,-0.92604 0,-0.47361 -0.0185,-0.94456 -0.36248,-0.94456 -0.34395,0 -0.36248,0.44979 -0.36248,0.94456 0,0.49477 0.0185,0.92869 0.36248,0.92869 z"
         id="path13319-7"
         style="fill:#ffffff;stroke-width:0.264583" /><path
         d="m 573.96257,188.07518 c 0,-0.49477 0.0344,-1.15623 0.64029,-1.15623 0.60589,0 0.64029,0.60325 0.64029,1.15623 0,0.47625 -0.0344,1.13506 -0.64029,1.13506 -0.6059,0 -0.64029,-0.6006 -0.64029,-1.13506 z m 0.64029,0.92604 c 0.34396,0 0.36248,-0.45244 0.36248,-0.92604 0,-0.47361 -0.0185,-0.94456 -0.36248,-0.94456 -0.34396,0 -0.36248,0.44979 -0.36248,0.94456 0,0.49477 0.0212,0.92869 0.36512,0.92869 z"
         id="path13321-0"
         style="fill:#ffffff;stroke-width:0.264583" /><path
         d="m 576.21417,188.15344 h -0.6985 v -0.20903 h 0.6985 v -0.70379 h 0.20902 v 0.6985 h 0.6985 v 0.21432 h -0.6985 v 0.6985 h -0.20902 z"
         id="path13323-2"
         style="fill:#ffffff;stroke-width:0.264583" /><path
         d="m 525.24748,188.67314 a 0.29633333,0.29633333 0 0 0 0.29634,0.33073 c 0.37571,0 0.39687,-0.56092 0.39687,-0.67469 v -0.17727 0 a 0.48947916,0.48947916 0 0 1 -0.42862,0.25135 c -0.39159,0 -0.58738,-0.28839 -0.58738,-0.71173 0,-0.42333 0.21696,-0.76729 0.635,-0.76729 0.62177,0 0.66675,0.60325 0.66675,1.05833 0,0.5133 -0.0317,1.22503 -0.68262,1.22503 a 0.52916666,0.52916666 0 0 1 -0.56886,-0.52917 z m 0.30427,-1.54252 c -0.28045,0 -0.35454,0.2831 -0.35454,0.52916 0,0.24607 0.0582,0.52917 0.35454,0.52917 0.29634,0 0.35455,-0.2831 0.35455,-0.52917 0,-0.24606 -0.0741,-0.52916 -0.3519,-0.52916 z"
         id="path13327-0"
         style="fill:#ffffff;stroke-width:0.264583" /><path
         d="m 527.21334,188.07518 c 0,-0.49477 0.0344,-1.15623 0.64029,-1.15623 0.6059,0 0.64029,0.60325 0.64029,1.15623 0,0.47625 -0.0344,1.13506 -0.64029,1.13506 -0.6059,0 -0.64029,-0.6006 -0.64029,-1.13506 z m 0.64029,0.92604 c 0.34131,0 0.36248,-0.45244 0.36248,-0.92604 0,-0.47361 -0.0185,-0.94456 -0.36248,-0.94456 -0.34396,0 -0.36248,0.44979 -0.36248,0.94456 0,0.49477 0.0212,0.92869 0.36513,0.92869 z"
         id="path13329-7"
         style="fill:#ffffff;stroke-width:0.264583" /><path
         d="m 528.73734,188.07518 c 0,-0.49477 0.0344,-1.15623 0.64029,-1.15623 0.6059,0 0.64029,0.60325 0.64029,1.15623 0,0.47625 -0.0344,1.13506 -0.64029,1.13506 -0.6059,0 -0.64029,-0.6006 -0.64029,-1.13506 z m 0.64029,0.92604 c 0.34131,0 0.36248,-0.45244 0.36248,-0.92604 0,-0.47361 -0.0185,-0.94456 -0.36248,-0.94456 -0.34396,0 -0.36248,0.44979 -0.36248,0.94456 0,0.49477 0.0212,0.92869 0.36513,0.92869 z"
         id="path13331-8"
         style="fill:#ffffff;stroke-width:0.264583" /><path
         d="m 530.25075,188.07518 c 0,-0.49477 0.0344,-1.15623 0.6403,-1.15623 0.60589,0 0.64029,0.60325 0.64029,1.15623 0,0.47625 -0.0344,1.13506 -0.64029,1.13506 -0.6059,0 -0.6403,-0.6006 -0.6403,-1.13506 z m 0.6403,0.92604 c 0.34395,0 0.36248,-0.45244 0.36248,-0.92604 0,-0.47361 -0.0185,-0.94456 -0.36248,-0.94456 -0.34396,0 -0.36248,0.44979 -0.36248,0.94456 0,0.49477 0.0318,0.92869 0.37571,0.92869 z"
         id="path13333-1"
         style="fill:#ffffff;stroke-width:0.264583" /><path
         d="m 480.95359,187.46135 a 0.2936875,0.2936875 0 0 0 -0.29634,-0.33073 c -0.3757,0 -0.39687,0.55827 -0.39687,0.67468 v 0.17727 0 a 0.48947916,0.48947916 0 0 1 0.42862,-0.25135 c 0.39159,0 0.58738,0.2884 0.58738,0.71173 0,0.42333 -0.21696,0.76729 -0.635,0.76729 -0.62177,0 -0.66675,-0.6006 -0.66675,-1.05833 0,-0.51329 0.0317,-1.22502 0.68262,-1.22502 a 0.52916666,0.52916666 0 0 1 0.56886,0.52916 z m -0.30427,1.54252 c 0.28046,0 0.35454,-0.28575 0.35454,-0.52917 0,-0.24342 -0.0582,-0.52917 -0.35454,-0.52917 -0.29634,0 -0.35454,0.28575 -0.35454,0.52917 0,0.24342 0.0767,0.52917 0.35454,0.52917 z"
         id="path13337-5"
         style="fill:#ffffff;stroke-width:0.264583" /><path
         d="m 482.27915,188.07518 c 0,-0.49477 0.0344,-1.15623 0.64029,-1.15623 0.6059,0 0.64029,0.60325 0.64029,1.15623 0,0.47625 -0.0344,1.13506 -0.64029,1.13506 -0.60589,0 -0.64029,-0.6006 -0.64029,-1.13506 z m 0.64029,0.92604 c 0.34131,0 0.36248,-0.45244 0.36248,-0.92604 0,-0.47361 -0.0185,-0.94456 -0.36248,-0.94456 -0.34396,0 -0.36248,0.44979 -0.36248,0.94456 0,0.49477 0.0212,0.92869 0.36248,0.92869 z"
         id="path13339-7"
         style="fill:#ffffff;stroke-width:0.264583" /><path
         d="m 483.80315,188.07518 c 0,-0.49477 0.0344,-1.15623 0.64029,-1.15623 0.6059,0 0.64029,0.60325 0.64029,1.15623 0,0.47625 -0.0344,1.13506 -0.64029,1.13506 -0.60589,0 -0.64029,-0.6006 -0.64029,-1.13506 z m 0.64029,0.92604 c 0.34131,0 0.36248,-0.45244 0.36248,-0.92604 0,-0.47361 -0.0185,-0.94456 -0.36248,-0.94456 -0.34396,0 -0.36248,0.44979 -0.36248,0.94456 0,0.49477 0.0212,0.92869 0.36248,0.92869 z"
         id="path13341-7"
         style="fill:#ffffff;stroke-width:0.264583" /><path
         d="m 485.32715,188.07518 c 0,-0.49477 0.0344,-1.15623 0.64029,-1.15623 0.6059,0 0.64029,0.60325 0.64029,1.15623 0,0.47625 -0.0344,1.13506 -0.64029,1.13506 -0.60589,0 -0.64029,-0.6006 -0.64029,-1.13506 z m 0.64029,0.92604 c 0.34396,0 0.36248,-0.45244 0.36248,-0.92604 0,-0.47361 -0.0185,-0.94456 -0.36248,-0.94456 -0.34396,0 -0.36248,0.44979 -0.36248,0.94456 0,0.49477 0.0212,0.92869 0.36248,0.92869 z"
         id="path13343-2"
         style="fill:#ffffff;stroke-width:0.264583" /><path
         d="m 447.43617,187.89262 h 0.14023 c 0.23813,0 0.34396,-0.17198 0.34396,-0.39688 0,-0.22489 -0.0767,-0.37571 -0.29104,-0.37571 -0.29634,0 -0.32279,0.26459 -0.32279,0.43921 h -0.28046 c 0,-0.38364 0.17991,-0.64823 0.59796,-0.64823 a 0.52916666,0.52916666 0 0 1 0.57679,0.58473 0.46302083,0.46302083 0 0 1 -0.34925,0.48154 v 0 a 0.48154166,0.48154166 0 0 1 0.41539,0.52917 c 0,0.4101 -0.20637,0.69585 -0.63764,0.69585 a 0.59795833,0.59795833 0 0 1 -0.63765,-0.62441 v -0.0291 h 0.28046 c 0,0.20638 0.10054,0.4445 0.35719,0.4445 0.16404,0 0.35719,-0.082 0.35983,-0.46302 a 0.37570833,0.37570833 0 0 0 -0.40746,-0.42862 h -0.14552 z"
         id="path13347-2"
         style="fill:#ffffff;stroke-width:0.264583" /><path
         d="m 449.28826,188.06724 c 0,-0.49477 0.0344,-1.15623 0.64029,-1.15358 0.60589,0.003 0.64029,0.60325 0.64029,1.15623 0,0.47625 -0.0344,1.13506 -0.64029,1.13506 -0.6059,0 -0.64029,-0.60325 -0.64029,-1.13771 z m 0.64029,0.92604 c 0.34396,0 0.36248,-0.45243 0.36248,-0.92604 0,-0.4736 -0.0185,-0.94456 -0.36248,-0.94456 -0.34396,0 -0.37571,0.44979 -0.37571,0.94456 0,0.49477 0.0212,0.93663 0.36512,0.93663 z"
         id="path13349-7"
         style="fill:#ffffff;stroke-width:0.264583" /><path
         d="m 450.80167,188.06724 c 0,-0.49477 0.0344,-1.15623 0.64029,-1.15623 0.6059,0 0.6403,0.60325 0.6403,1.15623 0,0.47625 -0.0344,1.13506 -0.6403,1.13506 -0.60589,0 -0.64029,-0.6006 -0.64029,-1.13506 z m 0.64029,0.92604 c 0.34396,0 0.36248,-0.45243 0.36248,-0.92604 0,-0.4736 -0.0185,-0.94456 -0.36248,-0.94721 -0.34395,-0.003 -0.36248,0.44979 -0.36248,0.94457 0,0.49477 0.0185,0.93927 0.36248,0.93927 z"
         id="path13351-7"
         style="fill:#ffffff;stroke-width:0.264583" /><path
         d="m 452.32567,188.06989 c 0,-0.49477 0.0344,-1.15623 0.64029,-1.15623 0.6059,0 0.6403,0.60325 0.6403,1.15623 0,0.47625 -0.0344,1.13506 -0.6403,1.13506 -0.60589,0 -0.64029,-0.60325 -0.64029,-1.13506 z m 0.64029,0.93398 c 0.34132,0 0.36248,-0.45244 0.36248,-0.92605 0,-0.4736 -0.0185,-0.94456 -0.36248,-0.9472 -0.34395,-0.003 -0.36248,0.44979 -0.36248,0.94456 0,0.49477 0.0185,0.92869 0.36248,0.92869 z"
         id="path13353-4"
         style="fill:#ffffff;stroke-width:0.264583" /><path
         d="m 433.17513,189.15468 h -1.25677 a 1.1985625,1.1985625 0 0 1 0.48683,-0.92075 l 0.18521,-0.15611 a 0.66410416,0.66410416 0 0 0 0.29898,-0.52916 c 0,-0.19315 -0.0847,-0.40217 -0.32808,-0.40217 -0.34661,0 -0.35454,0.35719 -0.35454,0.48419 h -0.28046 c 0,-0.42598 0.17727,-0.71438 0.63764,-0.71438 a 0.55827083,0.55827083 0 0 1 0.60325,0.60061 0.88635416,0.88635416 0 0 1 -0.39423,0.73819 l -0.3175,0.26458 a 0.69849999,0.69849999 0 0 0 -0.24341,0.38364 h 0.96573 z"
         id="path13357-0"
         style="fill:#ffffff;stroke-width:0.264583" /><path
         d="m 434.97959,186.90837 h 0.26458 v 1.47637 h 0.26459 v 0.22754 h -0.26459 v 0.5424 h -0.26458 v -0.5424 h -0.81227 v -0.25135 z m -0.5715,1.47637 h 0.5715 v -1.03717 0 z"
         id="path13359-2"
         style="fill:#ffffff;stroke-width:0.264583" /><path
         d="m 435.71513,188.0646 c 0,-0.49478 0.0344,-1.15623 0.64029,-1.15359 0.6059,0.003 0.64029,0.60325 0.64029,1.15623 0,0.47625 -0.0344,1.13506 -0.64029,1.13506 -0.60589,0 -0.64029,-0.60589 -0.64029,-1.1377 z m 0.64029,0.92604 c 0.34396,0 0.36248,-0.45244 0.36248,-0.92604 0,-0.47361 -0.0185,-0.94457 -0.36248,-0.94457 -0.34396,0 -0.36248,0.44979 -0.36248,0.94457 0,0.49477 0.0212,0.93927 0.36248,0.93927 z"
         id="path13361-2"
         style="fill:#ffffff;stroke-width:0.264583" /><path
         d="m 437.23913,188.0646 c 0,-0.49478 0.0344,-1.15623 0.64029,-1.15359 0.6059,0.003 0.64029,0.60325 0.64029,1.15623 0,0.47625 -0.0344,1.13506 -0.64029,1.13506 -0.60589,0 -0.64029,-0.60325 -0.64029,-1.1377 z m 0.64029,0.92604 c 0.34131,0 0.36248,-0.45244 0.36248,-0.92604 0,-0.47361 -0.0185,-0.94457 -0.36248,-0.94457 -0.34396,0 -0.36248,0.44979 -0.36248,0.94457 0,0.49477 0.0212,0.93927 0.36248,0.93927 z"
         id="path13363-3"
         style="fill:#ffffff;stroke-width:0.264583" /><path
         d="m 416.65455,187.27349 c 0.2831,-0.0159 0.54239,-0.0503 0.55562,-0.36777 h 0.1905 v 2.24631 h -0.26458 v -1.68804 h -0.4789 z"
         id="path13367-5"
         style="fill:#ffffff;stroke-width:0.264583" /><path
         d="m 419.24217,187.94553 a 0.46566666,0.46566666 0 0 1 -0.32544,-0.47889 0.57415,0.57415 0 0 1 1.1483,0 0.46566666,0.46566666 0 0 1 -0.32809,0.47889 0.52916666,0.52916666 0 0 1 0.39688,0.57679 0.64558333,0.64558333 0 1 1 -1.28852,0 0.52916666,0.52916666 0 0 1 0.39687,-0.57679 z m 0.24606,1.03188 c 0.26459,0 0.36513,-0.19844 0.36513,-0.46302 0,-0.26459 -0.10583,-0.46302 -0.36513,-0.46302 -0.25929,0 -0.36512,0.20108 -0.36512,0.46302 0,0.26193 0.10583,0.47096 0.36512,0.47096 z m -0.29368,-1.50284 c 0,0.20903 0.0873,0.36778 0.29633,0.36778 0.20902,0 0.29633,-0.15875 0.29633,-0.36778 0,-0.20902 -0.0926,-0.36777 -0.29633,-0.36777 -0.20373,0 -0.29633,0.16405 -0.29633,0.37571 z"
         id="path13369-5"
         style="fill:#ffffff;stroke-width:0.264583" /><path
         d="m 420.37194,188.0593 c 0,-0.49477 0.0344,-1.15623 0.64029,-1.15358 0.6059,0.003 0.6403,0.60325 0.6403,1.15623 0,0.47625 -0.0344,1.13506 -0.6403,1.13506 -0.60589,0 -0.64029,-0.60325 -0.64029,-1.13771 z m 0.64029,0.92605 c 0.34132,0 0.36248,-0.45244 0.36248,-0.92605 0,-0.4736 -0.0185,-0.94456 -0.36248,-0.9472 -0.34395,-0.003 -0.36247,0.44979 -0.36247,0.94456 0,0.49477 0.0212,0.93133 0.36247,0.93133 z"
         id="path13371-0"
         style="fill:#ffffff;stroke-width:0.264583" /><path
         d="m 421.89594,188.06195 c 0,-0.49477 0.0344,-1.15623 0.64029,-1.15358 0.6059,0.003 0.6403,0.60325 0.6403,1.15623 0,0.47625 -0.0344,1.13506 -0.6403,1.13506 -0.60589,0 -0.64029,-0.6059 -0.64029,-1.13771 z m 0.64029,0.92604 c 0.34396,0 0.36248,-0.45244 0.36248,-0.92604 0,-0.4736 -0.0185,-0.94456 -0.36248,-0.94456 -0.34395,0 -0.36247,0.44979 -0.36247,0.94456 0,0.49477 0.0212,0.92604 0.36247,0.92604 z"
         id="path13373-7"
         style="fill:#ffffff;stroke-width:0.264583" /><path
         d="m 400.89332,187.2682 c 0.2831,-0.0159 0.54239,-0.0503 0.55562,-0.36777 h 0.1905 v 2.24631 h -0.26458 v -1.68804 h -0.4789 z"
         id="path13377-4"
         style="fill:#ffffff;stroke-width:0.264583" /><path
         d="m 404.35671,189.14674 h -1.25677 a 1.1985625,1.1985625 0 0 1 0.48684,-0.92075 l 0.1852,-0.1561 a 0.66410416,0.66410416 0 0 0 0.29898,-0.52917 c 0,-0.19315 -0.0847,-0.40217 -0.32808,-0.40217 -0.3466,0 -0.35454,0.35984 -0.35454,0.48419 h -0.28046 c 0,-0.42598 0.17727,-0.71437 0.63765,-0.71437 a 0.55827083,0.55827083 0 0 1 0.60325,0.6006 0.88635416,0.88635416 0 0 1 -0.39423,0.73819 l -0.3175,0.26458 a 0.69849999,0.69849999 0 0 0 -0.24342,0.38365 h 0.96573 z"
         id="path13379-3"
         style="fill:#ffffff;stroke-width:0.264583" /><path
         d="m 404.61071,188.05666 c 0,-0.49477 0.0344,-1.15623 0.6403,-1.15359 0.60589,0.003 0.64558,0.60061 0.64558,1.15359 0,0.47625 -0.0344,1.13506 -0.64029,1.13506 -0.6059,0 -0.64559,-0.60325 -0.64559,-1.13506 z m 0.6403,0.92604 c 0.34131,0 0.36247,-0.45244 0.36247,-0.92604 0,-0.47361 -0.0185,-0.94456 -0.36247,-0.94456 -0.34396,0 -0.36248,0.44979 -0.36248,0.94456 0,0.49477 0.0212,0.92604 0.36248,0.92604 z"
         id="path13381-6"
         style="fill:#ffffff;stroke-width:0.264583" /><path
         d="m 406.13471,188.05666 c 0,-0.49477 0.0344,-1.15623 0.6403,-1.15359 0.60589,0.003 0.64029,0.60325 0.64029,1.15623 0,0.47625 -0.0344,1.13507 -0.64029,1.13507 -0.6059,0 -0.6403,-0.6059 -0.6403,-1.13771 z m 0.6403,0.92604 c 0.34395,0 0.36247,-0.45244 0.36247,-0.92604 0,-0.47361 -0.0185,-0.94456 -0.36247,-0.94456 -0.34396,0 -0.34925,0.44979 -0.34925,0.94456 0,0.49477 0,0.92604 0.34925,0.92604 z"
         id="path13383-4"
         style="fill:#ffffff;stroke-width:0.264583" /><path
         d="m 387.56361,187.43489 a 0.2936875,0.2936875 0 0 0 -0.29633,-0.33073 c -0.37571,0 -0.39688,0.55827 -0.39688,0.67469 v 0.17727 0 a 0.48947916,0.48947916 0 0 1 0.42863,-0.25136 c 0.39158,0 0.58737,0.2884 0.58737,0.71173 0,0.42333 -0.21696,0.76729 -0.635,0.76729 -0.62177,0 -0.66675,-0.6006 -0.66675,-1.05833 0,-0.51329 0.0317,-1.22502 0.68263,-1.22502 a 0.52916666,0.52916666 0 0 1 0.56885,0.52917 z m -0.30427,1.54252 c 0.28046,0 0.35454,-0.28575 0.35454,-0.52917 0,-0.24342 -0.0582,-0.52917 -0.35454,-0.52917 -0.29633,0 -0.35454,0.28575 -0.35454,0.52917 0,0.24342 0.0741,0.52917 0.35454,0.52917 z"
         id="path13387-3"
         style="fill:#ffffff;stroke-width:0.264583" /><path
         d="m 388.12453,188.05137 c 0,-0.49477 0.0344,-1.15623 0.64029,-1.15359 0.60589,0.003 0.64029,0.60325 0.64029,1.15623 0,0.47625 -0.0344,1.13506 -0.64029,1.13506 -0.6059,0 -0.64029,-0.60325 -0.64029,-1.1377 z m 0.64029,0.92604 c 0.34396,0 0.36248,-0.45244 0.36248,-0.92604 0,-0.47361 -0.0185,-0.94457 -0.36248,-0.94457 -0.34396,0 -0.36248,0.4498 -0.36248,0.94457 0,0.49477 0.0318,0.92604 0.36512,0.92604 z"
         id="path13389-3"
         style="fill:#ffffff;stroke-width:0.264583" /><path
         d="m 389.64853,188.05137 c 0,-0.49477 0.0344,-1.15623 0.64029,-1.15623 0.60589,0 0.64029,0.60325 0.64029,1.15623 0,0.47625 -0.0344,1.13506 -0.64029,1.13506 -0.6059,0 -0.64029,-0.60061 -0.64029,-1.13506 z m 0.64029,0.92604 c 0.34396,0 0.36248,-0.45244 0.36248,-0.92604 0,-0.47361 -0.0185,-0.94457 -0.36248,-0.94721 -0.34396,-0.003 -0.36248,0.44979 -0.36248,0.94456 0,0.49477 0.0212,0.93133 0.35983,0.93133 z"
         id="path13391-4"
         style="fill:#ffffff;stroke-width:0.264583" /><path
         d="m 371.70978,187.87145 h 0.14023 c 0.23812,0 0.34395,-0.17198 0.34395,-0.39688 0,-0.22489 -0.0767,-0.3757 -0.29104,-0.3757 -0.29633,0 -0.32279,0.26458 -0.32279,0.4392 h -0.28046 c 0,-0.38364 0.17992,-0.64822 0.59796,-0.64822 a 0.52916666,0.52916666 0 0 1 0.57679,0.58472 0.46302083,0.46302083 0 0 1 -0.35189,0.47096 v 0 a 0.48154166,0.48154166 0 0 1 0.41539,0.52917 c 0,0.4101 -0.20637,0.69585 -0.63764,0.69585 a 0.59795833,0.59795833 0 0 1 -0.63765,-0.62441 v -0.0291 h 0.28046 c 0,0.20638 0.10054,0.4445 0.35719,0.4445 0.16404,0 0.35983,-0.082 0.35983,-0.46302 a 0.37570833,0.37570833 0 0 0 -0.40746,-0.42862 h -0.14287 z"
         id="path13395-9"
         style="fill:#ffffff;stroke-width:0.264583" /><path
         d="m 372.78134,188.04607 c 0,-0.49477 0.0344,-1.15622 0.64029,-1.15358 0.6059,0.003 0.64029,0.60325 0.64029,1.15623 0,0.47625 -0.0344,1.13506 -0.64029,1.13506 -0.60589,0 -0.64029,-0.60325 -0.64029,-1.13771 z m 0.64029,0.92605 c 0.34396,0 0.36248,-0.45244 0.36248,-0.92605 0,-0.4736 -0.0185,-0.94456 -0.36248,-0.94456 -0.34396,0 -0.36248,0.44979 -0.36248,0.94456 0,0.49478 0.0291,0.92869 0.36513,0.92869 z"
         id="path13397-7"
         style="fill:#ffffff;stroke-width:0.264583" /><path
         d="m 374.30534,188.04872 c 0,-0.49477 0.0344,-1.15623 0.64029,-1.15358 0.6059,0.003 0.64029,0.60325 0.64029,1.15623 0,0.47625 -0.0344,1.13506 -0.64029,1.13506 -0.60589,0 -0.64029,-0.6059 -0.64029,-1.13771 z m 0.64029,0.92604 c 0.34396,0 0.36248,-0.45244 0.36248,-0.92604 0,-0.4736 -0.0185,-0.94456 -0.36248,-0.94456 -0.34396,0 -0.36248,0.44979 -0.36248,0.94456 0,0.49477 0.0212,0.92604 0.35719,0.92604 z"
         id="path13399-2"
         style="fill:#ffffff;stroke-width:0.264583" /><rect
         class="cls-1"
         x="358.10754"
         width="219.18083"
         height="3.4845624"
         id="rect13307-8"
         style="fill:url(#linear-gradient-2-9);stroke-width:0.264583"
         y="182.12469" /><g
         id="g14843"><polyline
           class="cls-2"
           points="92.44 0 92.44 13.4 920.72 13.4 920.72 0"
           id="polyline13309-9"
           style="fill:none;stroke:#ffffff;stroke-width:1.00157;stroke-miterlimit:10;stroke-dasharray:none"
           transform="matrix(0.26458333,0,0,0.26458333,333.66534,182.1247)" /><line
           class="cls-2"
           x1="528.2373"
           x2="528.2373"
           y2="185.87914"
           id="line13325-6"
           y1="182.12469"
           style="fill:none;stroke:#ffffff;stroke-width:0.264583;stroke-miterlimit:10" /><line
           class="cls-2"
           x1="483.30045"
           x2="483.30045"
           y2="185.87914"
           id="line13335-1"
           y1="182.12469"
           style="fill:none;stroke:#ffffff;stroke-width:0.264583;stroke-miterlimit:10" /><line
           class="cls-2"
           x1="450.33865"
           x2="450.33865"
           y2="185.87914"
           id="line13345-8"
           y1="182.12469"
           style="fill:none;stroke:#ffffff;stroke-width:0.264583;stroke-miterlimit:10" /><line
           class="cls-2"
           x1="435.31561"
           x2="435.31561"
           y2="185.87914"
           id="line13355-2"
           y1="182.12469"
           style="fill:none;stroke:#ffffff;stroke-width:0.264583;stroke-miterlimit:10" /><line
           class="cls-2"
           x1="419.87717"
           x2="419.87717"
           y2="185.87914"
           id="line13365-9"
           y1="182.12469"
           style="fill:none;stroke:#ffffff;stroke-width:0.264583;stroke-miterlimit:10" /><line
           class="cls-2"
           x1="404.43872"
           x2="404.43872"
           y2="185.87914"
           id="line13375-3"
           y1="182.12469"
           style="fill:none;stroke:#ffffff;stroke-width:0.264583;stroke-miterlimit:10" /><line
           class="cls-2"
           x1="389.00031"
           x2="389.00031"
           y2="185.87914"
           id="line13385-0"
           y1="182.12469"
           style="fill:none;stroke:#ffffff;stroke-width:0.264583;stroke-miterlimit:10" /><line
           class="cls-2"
           x1="373.56186"
           x2="373.56186"
           y2="185.87914"
           id="line13393-5"
           y1="182.12469"
           style="fill:none;stroke:#ffffff;stroke-width:0.264583;stroke-miterlimit:10" /><line
           class="cls-2"
           x1="365.63229"
           x2="365.63229"
           y2="185.87914"
           id="line13401-8"
           y1="182.12469"
           style="fill:none;stroke:#ffffff;stroke-width:0.264583;stroke-miterlimit:10" /></g><path
         d="m 363.46536,187.25762 c 0.2831,-0.0159 0.5424,-0.0503 0.55563,-0.36777 h 0.1905 v 2.24631 h -0.26459 v -1.68804 h -0.47889 z"
         id="path13403-0"
         style="fill:#ffffff;stroke-width:0.264583" /><path
         d="m 365.08461,186.93218 h 1.00277 v 0.24871 h -0.79375 l -0.09,0.65087 v 0 a 0.50799999,0.50799999 0 0 1 0.39423,-0.16669 c 0.33602,0 0.56356,0.26459 0.56356,0.73819 0,0.41804 -0.1852,0.76994 -0.65352,0.76994 a 0.58472916,0.58472916 0 0 1 -0.61648,-0.62177 h 0.28046 c 0,0.11642 0.045,0.41275 0.34132,0.41275 0.29633,0 0.36777,-0.35454 0.36777,-0.58473 0,-0.23019 -0.0926,-0.508 -0.37571,-0.508 a 0.333375,0.333375 0 0 0 -0.3175,0.2196 h -0.24077 z"
         id="path13405-0"
         style="fill:#ffffff;stroke-width:0.264583" /><path
         d="m 366.42076,188.04343 c 0,-0.49477 0.0344,-1.15623 0.64029,-1.15358 0.60589,0.003 0.64029,0.60325 0.64029,1.15622 0,0.47625 -0.0344,1.13507 -0.64029,1.13507 -0.6059,0 -0.64029,-0.60325 -0.64029,-1.13771 z m 0.64029,0.92604 c 0.34131,0 0.36248,-0.45244 0.36248,-0.92604 0,-0.47361 -0.0185,-0.94456 -0.36248,-0.94456 -0.34396,0 -0.36248,0.44979 -0.36248,0.94456 0,0.49477 0.0212,0.92869 0.36248,0.92869 z"
         id="path13407-3"
         style="fill:#ffffff;stroke-width:0.264583" /><path
         d="m 340.55532,183.0428 h 0.46302 l 0.59531,2.2569 h -0.381 l -0.14023,-0.55563 h -0.65352 l -0.15081,0.55563 h -0.37836 z m 0.48154,1.42346 -0.26458,-1.11654 v 0 l -0.26459,1.11654 z"
         id="path13409-7"
         style="fill:#ffffff;stroke-width:0.264583" /><path
         d="m 341.73271,183.0428 h 0.36248 v 1.96057 h 0.87577 v 0.29633 h -1.23825 z"
         id="path13411-8"
         style="fill:#ffffff;stroke-width:0.264583" /><path
         d="m 343.26465,183.34972 h -0.52917 v -0.30692 h 1.40759 v 0.30692 h -0.52917 v 1.94998 h -0.3519 z"
         id="path13413-7"
         style="fill:#ffffff;stroke-width:0.264583" /><path
         d="m 344.3468,183.04545 h 0.36248 v 2.25425 h -0.36248 z"
         id="path13415-5"
         style="fill:#ffffff;stroke-width:0.264583" /><path
         d="m 345.43953,183.34972 h -0.52917 v -0.30427 h 1.43139 v 0.30427 h -0.52916 v 1.94998 h -0.37571 z"
         id="path13417-7"
         style="fill:#ffffff;stroke-width:0.264583" /><path
         d="m 346.87092,183.04545 v 1.62454 c 0,0.28575 0.11377,0.41275 0.33338,0.41275 0.2196,0 0.33073,-0.127 0.33073,-0.41275 v -1.62454 h 0.36247 v 1.5875 c 0,0.52917 -0.26458,0.71437 -0.6932,0.71437 -0.42863,0 -0.69586,-0.1905 -0.69586,-0.71437 v -1.5875 z"
         id="path13419-5"
         style="fill:#ffffff;stroke-width:0.264583" /><path
         d="m 348.24146,183.04545 h 0.64294 c 0.71173,0 0.79375,0.46302 0.79375,1.13242 0,0.66939 -0.09,1.13241 -0.79375,1.13241 h -0.64294 z m 0.36248,1.98967 h 0.30163 c 0.29898,0 0.42068,-0.1958 0.42333,-0.8599 0.003,-0.6641 -0.11377,-0.85725 -0.42333,-0.85725 h -0.30163 z"
         id="path13421-5"
         style="fill:#ffffff;stroke-width:0.264583" /><path
         d="m 350.00888,183.04545 h 1.22502 v 0.30692 h -0.86519 v 0.62441 h 0.81227 v 0.30692 h -0.81227 v 0.72496 h 0.889 v 0.29104 h -1.25148 z"
         id="path13423-5"
         style="fill:#ffffff;stroke-width:0.264583" /><path
         d="m 352.93253,183.0481 a 2.6802291,2.6802291 0 0 0 -0.36248,1.42345 2.7596041,2.7596041 0 0 0 0.36248,1.42611 h -0.24342 a 2.4209375,2.4209375 0 0 1 0,-2.84956 z"
         id="path13425-4"
         style="fill:#ffffff;stroke-width:0.264583" /><path
         d="m 353.11244,183.60637 h 0.32279 v 0.19843 0 a 0.47889583,0.47889583 0 0 1 0.41011,-0.24341 0.37041666,0.37041666 0 0 1 0.39687,0.26458 0.46566666,0.46566666 0 0 1 0.43127,-0.26458 c 0.24077,0 0.4154,0.12435 0.4154,0.45508 v 1.2991 h -0.33338 v -1.1721 c 0,-0.22225 -0.0661,-0.30692 -0.20637,-0.30692 -0.14023,0 -0.26458,0.11113 -0.26458,0.33338 v 1.14564 h -0.3519 v -1.1721 c 0,-0.22225 -0.0662,-0.30692 -0.20902,-0.30692 -0.14288,0 -0.26458,0.11113 -0.26458,0.33338 v 1.14564 h -0.34661 z"
         id="path13427-2"
         style="fill:#ffffff;stroke-width:0.264583" /><path
         d="m 355.19409,185.89766 a 2.6775833,2.6775833 0 0 0 0.36248,-1.4261 2.7569583,2.7569583 0 0 0 -0.36248,-1.42346 h 0.24342 a 2.4235833,2.4235833 0 0 1 0,2.84956 z"
         id="path12965-1-3"
         style="fill:#ffffff;stroke-width:0.264583" /></g></g></svg>
