<?xml version="1.0" encoding="UTF-8" standalone="no"?>
<svg
   viewBox="10.6 0 59.080718 855.92458"
   version="1.1"
   id="svg167"
   sodipodi:docname="alt_legend-ft-vert_darkmode.svg"
   inkscape:version="1.2.2 (b0a8486541, 2022-12-01)"
   width="59.080719"
   height="855.92456"
   xmlns:inkscape="http://www.inkscape.org/namespaces/inkscape"
   xmlns:sodipodi="http://sodipodi.sourceforge.net/DTD/sodipodi-0.dtd"
   xmlns="http://www.w3.org/2000/svg"
   xmlns:svg="http://www.w3.org/2000/svg"
   xmlns:rdf="http://www.w3.org/1999/02/22-rdf-syntax-ns#"
   xmlns:cc="http://creativecommons.org/ns#"
   xmlns:dc="http://purl.org/dc/elements/1.1/">
  <sodipodi:namedview
     id="namedview169"
     pagecolor="#ffffff"
     bordercolor="#666666"
     borderopacity="1.0"
     inkscape:showpageshadow="2"
     inkscape:pageopacity="0.0"
     inkscape:pagecheckerboard="0"
     inkscape:deskcolor="#d1d1d1"
     showgrid="false"
     inkscape:zoom="1.2746985"
     inkscape:cx="15.297735"
     inkscape:cy="449.12582"
     inkscape:window-width="3360"
     inkscape:window-height="1411"
     inkscape:window-x="2151"
     inkscape:window-y="1318"
     inkscape:window-maximized="1"
     inkscape:current-layer="REDESIGN" />
  <defs
     id="defs25">
    <style
       id="style2">.cls-1{fill:url(#linear-gradient);}.cls-2{fill:none;stroke:#000;stroke-miterlimit:10;}</style>
    <linearGradient
       id="linear-gradient"
       x1="77.889999"
       y1="6.5799999"
       x2="906.28003"
       y2="6.5799999"
       gradientUnits="userSpaceOnUse">
      <stop
         offset="0.033"
         stop-color="hsl(23.125,88%,51.041666666666664%)"
         id="stop4" />
      <stop
         offset="0.066"
         stop-color="hsl(26.25,88%,52.083333333333336%)"
         id="stop6" />
      <stop
         offset="0.126"
         stop-color="hsl(32.5,88%,53.875%)"
         id="stop8" />
      <stop
         offset="0.19"
         stop-color="hsl(43,88%,51.5%)"
         id="stop10" />
      <stop
         offset="0.253"
         stop-color="hsl(54,88%,44.8%)"
         id="stop12" />
      <stop
         offset="0.316"
         stop-color="hsl(72,88%,41.8%)"
         id="stop14" />
      <stop
         offset="0.38"
         stop-color="hsl(112.5,88%,41%)"
         id="stop16" />
      <stop
         offset="0.59"
         stop-color="hsl(189.6551724137931,88%,43.862068965517246%)"
         id="stop18" />
      <stop
         offset="0.79"
         stop-color="hsl(244.82758620689657,88%,57.03448275862068%)"
         id="stop20" />
      <stop
         offset="1"
         stop-color="hsl(300,88%,43%)"
         id="stop22" />
    </linearGradient>
  </defs>
  <title
     id="title27">Altitude Legend (ft)</title>
  <g
     id="REDESIGN"
     transform="rotate(-90,460.01828,449.41828)">
    <rect
       class="cls-1"
       x="77.889999"
       width="828.40002"
       height="13.17"
       id="rect29"
       style="fill:url(#linear-gradient)"
       y="0" />
    <polyline
       class="cls-2"
       points="78 0 78 13.4 906.28 13.4 906.28 0"
       id="polyline31"
       style="stroke:#ffffff" />
    <path
       d="m 77.919985,17.909985 c 1.87,0 4.37,0.13 4.36,2.42 -0.01,2.29 -2.28,2.42 -4.37,2.42 -1.8,0 -4.29,-0.13 -4.29,-2.42 0,-2.29 2.29,-2.42 4.3,-2.42 z m -3.5,2.47 c 0,1.3 1.71,1.37 3.5,1.37 1.79,0 3.57,-0.07 3.58,-1.37 0.01,-1.3 -1.7,-1.37 -3.57,-1.37 -1.87,0 -3.51,0.03 -3.51,1.37 z"
       id="path33"
       style="stroke:none;stroke-opacity:1;fill:#ffffff;fill-opacity:1" />
    <g
       id="g630"
       transform="translate(4,0.07342)"
       style="stroke:none;stroke-opacity:1;fill:#ffffff;fill-opacity:1">
      <path
         d="m 905.42657,20.906565 v 1 h -5.57 v 1 h -0.86 v -1 h -2.05 v -1 h 2.04 v -3.07 h 0.95 z m -5.58,-2.16 v 2.16 h 3.93 v 0 z"
         id="path35"
         style="stroke:none;stroke-opacity:1;fill:#ffffff;fill-opacity:1" />
      <path
         d="m 901.06657,23.696565 c 1.87,0 4.37,0.13 4.37,2.42 0,2.29 -2.28,2.42 -4.37,2.42 -1.8,0 -4.29,-0.13 -4.29,-2.42 0,-2.29 2.27,-2.42 4.29,-2.42 z m -3.51,2.38 c 0,1.3 1.71,1.37 3.5,1.37 1.79,0 3.57,-0.07 3.57,-1.37 0,-1.3 -1.7,-1.37 -3.57,-1.37 -1.87,0 -3.5,0.12 -3.5,1.37 z"
         id="path37"
         style="stroke:none;stroke-opacity:1;fill:#ffffff;fill-opacity:1" />
      <path
         d="m 901.06657,32.336565 c 1.87,0 4.37,0.13 4.37,2.42 0,2.29 -2.28,2.42 -4.37,2.42 -1.8,0 -4.29,-0.13 -4.29,-2.42 0,-2.29 2.27,-2.42 4.29,-2.42 z m -3.5,2.42 c 0,1.29 1.71,1.37 3.5,1.37 1.79,0 3.57,-0.07 3.57,-1.37 0,-1.3 -1.7,-1.37 -3.57,-1.37 -1.87,0 -3.51,0.08 -3.51,1.37 z"
         id="path39"
         style="stroke:none;stroke-opacity:1;fill:#ffffff;fill-opacity:1" />
      <path
         d="m 901.06657,38.076565 c 1.87,0 4.37,0.13 4.37,2.42 0,2.29 -2.28,2.42 -4.37,2.42 -1.8,0 -4.29,-0.13 -4.29,-2.42 0,-2.29 2.27,-2.42 4.29,-2.42 z m -3.5,2.42 c 0,1.3 1.71,1.37 3.5,1.37 1.79,0 3.57,-0.07 3.57,-1.37 0,-1.3 -1.7,-1.37 -3.57,-1.37 -1.87,0 -3.51,0.1 -3.51,1.39 z"
         id="path41"
         style="stroke:none;stroke-opacity:1;fill:#ffffff;fill-opacity:1" />
      <path
         d="m 901.06657,43.856565 c 1.87,0 4.37,0.13 4.37,2.42 0,2.29 -2.28,2.42 -4.37,2.42 -1.8,0 -4.29,-0.13 -4.29,-2.42 0,-2.29 2.27,-2.42 4.29,-2.42 z m -3.51,2.42 c 0,1.3 1.71,1.37 3.5,1.37 1.79,0 3.57,-0.07 3.57,-1.37 0,-1.3 -1.7,-1.37 -3.57,-1.37 -1.87,0 -3.5,0.08 -3.5,1.37 z"
         id="path43"
         style="stroke:none;stroke-opacity:1;fill:#ffffff;fill-opacity:1" />
      <path
         d="m 900.7708,52.366565 v -2.64 h 0.79 v 2.64 h 2.66 v 0.79 h -2.64 v 2.64 h -0.81 v -2.64 h -2.64 v -0.79 z"
         id="path45"
         style="stroke:none;stroke-opacity:1;fill:#ffffff;fill-opacity:1" />
    </g>
    <line
       class="cls-2"
       x1="720.95001"
       x2="720.95001"
       y2="14.19"
       id="line47"
       y1="0"
       style="stroke:#ffffff" />
    <g
       id="g622"
       transform="translate(0,1.2655463)"
       style="stroke:#ffffff;stroke-opacity:1;fill:#ffffff;fill-opacity:1">
      <path
         d="m 722.25085,18.346886 v 0.53 c 0,0.9 0.65,1.29 1.5,1.29 0.85,0 1.42,-0.29 1.42,-1.1 0,-1.12 -1,-1.22 -1.66,-1.22 v -1.06 c 1.45,0 2.45,0.68 2.45,2.25 a 2,2 0 0 1 -2.21,2.18 1.75,1.75 0 0 1 -1.82,-1.32 v 0 a 1.81,1.81 0 0 1 -2,1.57 c -1.55,0 -2.63,-0.78 -2.63,-2.41 a 2.26,2.26 0 0 1 2.36,-2.41 h 0.11 v 1.06 c -0.78,0 -1.68,0.38 -1.68,1.36 0,0.62 0.31,1.35 1.75,1.35 a 1.42,1.42 0 0 0 1.62,-1.54 v -0.54 z"
         id="path49"
         style="stroke:#ffffff;stroke-opacity:1;fill:#ffffff;fill-opacity:1" />
      <path
         d="m 721.59085,22.406886 c 1.87,0 4.37,0.13 4.37,2.42 0,2.29 -2.28,2.42 -4.37,2.42 -1.8,0 -4.29,-0.13 -4.29,-2.42 0,-2.29 2.27,-2.42 4.29,-2.42 z m -3.5,2.42 c 0,1.29 1.71,1.37 3.5,1.37 1.79,0 3.57,-0.07 3.57,-1.37 0,-1.3 -1.7,-1.37 -3.57,-1.37 -1.87,0 -3.51,0.08 -3.51,1.37 z"
         id="path51"
         style="stroke:#ffffff;stroke-opacity:1;fill:#ffffff;fill-opacity:1" />
      <path
         d="m 721.59085,31.076886 c 1.87,0 4.37,0.13 4.37,2.42 0,2.29 -2.28,2.42 -4.37,2.42 -1.8,0 -4.29,-0.13 -4.29,-2.42 0,-2.29 2.27,-2.42 4.29,-2.42 z m -3.5,2.42 c 0,1.3 1.71,1.37 3.5,1.37 1.79,0 3.57,-0.07 3.57,-1.37 0,-1.3 -1.7,-1.42 -3.57,-1.42 -1.87,0 -3.51,0.09 -3.51,1.39 z"
         id="path53"
         style="stroke:#ffffff;stroke-opacity:1;fill:#ffffff;fill-opacity:1" />
      <path
         d="m 721.59085,36.806886 c 1.87,0 4.37,0.13 4.37,2.42 0,2.29 -2.28,2.42 -4.37,2.42 -1.8,0 -4.29,-0.13 -4.29,-2.42 0,-2.29 2.27,-2.42 4.29,-2.42 z m -3.5,2.42 c 0,1.29 1.71,1.37 3.5,1.37 1.79,0 3.57,-0.07 3.57,-1.37 0,-1.3 -1.7,-1.37 -3.57,-1.37 -1.87,0 -3.51,0.08 -3.51,1.37 z"
         id="path55"
         style="stroke:#ffffff;stroke-opacity:1;fill:#ffffff;fill-opacity:1" />
      <path
         d="m 721.59085,42.566886 c 1.87,0 4.37,0.13 4.37,2.42 0,2.29 -2.28,2.42 -4.37,2.42 -1.8,0 -4.29,-0.13 -4.29,-2.42 0,-2.29 2.27,-2.42 4.29,-2.42 z m -3.5,2.42 c 0,1.29 1.71,1.37 3.5,1.37 1.79,0 3.57,-0.07 3.57,-1.37 0,-1.3 -1.7,-1.37 -3.57,-1.37 -1.87,0 -3.51,0.08 -3.51,1.37 z"
         id="path57"
         style="stroke:#ffffff;stroke-opacity:1;fill:#ffffff;fill-opacity:1" />
    </g>
    <line
       class="cls-2"
       x1="551.12"
       x2="551.12"
       y2="14.19"
       id="line59"
       y1="0"
       style="stroke:#ffffff" />
    <g
       id="g615"
       transform="translate(0,1.237275)"
       style="stroke:#ffffff;stroke-opacity:1;fill:#ffffff;fill-opacity:1">
      <path
         d="m 547.64912,21.42271 v -4.75 a 4.53,4.53 0 0 1 3.48,1.83 l 0.59,0.7 a 2.51,2.51 0 0 0 2,1.13 c 0.73,0 1.52,-0.32 1.52,-1.24 0,-1.31 -1.36,-1.34 -1.83,-1.34 v -1.06 c 1.61,0 2.7,0.67 2.7,2.41 a 2.11,2.11 0 0 1 -2.27,2.28 3.35,3.35 0 0 1 -2.76,-1.49 l -1,-1.2 a 2.64,2.64 0 0 0 -1.45,-0.92 v 3.65 z"
         id="path61"
         style="stroke:#ffffff;stroke-opacity:1;fill:#ffffff;fill-opacity:1" />
      <path
         d="m 551.77912,22.38271 c 1.87,0 4.37,0.13 4.37,2.42 0,2.29 -2.28,2.42 -4.37,2.42 -1.8,0 -4.29,-0.13 -4.29,-2.42 0,-2.29 2.27,-2.42 4.29,-2.42 z m -3.5,2.42 c 0,1.29 1.71,1.37 3.5,1.37 1.79,0 3.57,-0.07 3.57,-1.37 0,-1.3 -1.7,-1.37 -3.57,-1.37 -1.87,0 -3.51,0.08 -3.51,1.38 z"
         id="path63"
         style="stroke:#ffffff;stroke-opacity:1;fill:#ffffff;fill-opacity:1" />
      <path
         d="m 551.77912,31.02271 c 1.87,0 4.37,0.13 4.37,2.42 0,2.29 -2.28,2.45 -4.37,2.45 -1.8,0 -4.29,-0.13 -4.29,-2.42 0,-2.29 2.27,-2.45 4.29,-2.45 z m -3.5,2.42 c 0,1.3 1.71,1.37 3.5,1.37 1.79,0 3.57,-0.07 3.57,-1.37 0,-1.3 -1.7,-1.37 -3.57,-1.37 -1.87,0 -3.51,0.08 -3.51,1.38 z"
         id="path65"
         style="stroke:#ffffff;stroke-opacity:1;fill:#ffffff;fill-opacity:1" />
      <path
         d="m 551.77912,36.78271 c 1.87,0 4.37,0.13 4.37,2.42 0,2.29 -2.28,2.42 -4.37,2.42 -1.8,0 -4.29,-0.13 -4.29,-2.42 0,-2.29 2.27,-2.42 4.29,-2.42 z m -3.5,2.42 c 0,1.29 1.71,1.37 3.5,1.37 1.79,0 3.57,-0.07 3.57,-1.37 0,-1.3 -1.7,-1.37 -3.57,-1.37 -1.87,0 -3.51,0.06 -3.51,1.38 z"
         id="path67"
         style="stroke:#ffffff;stroke-opacity:1;fill:#ffffff;fill-opacity:1" />
      <path
         d="m 551.77912,42.54271 c 1.87,0 4.37,0.13 4.37,2.42 0,2.29 -2.28,2.42 -4.37,2.42 -1.8,0 -4.29,-0.13 -4.29,-2.42 0,-2.29 2.27,-2.42 4.29,-2.42 z m -3.5,2.42 c 0,1.29 1.71,1.37 3.5,1.37 1.79,0 3.57,-0.07 3.57,-1.37 0,-1.3 -1.7,-1.37 -3.57,-1.37 -1.87,0 -3.51,0.08 -3.51,1.38 z"
         id="path69"
         style="stroke:#ffffff;stroke-opacity:1;fill:#ffffff;fill-opacity:1" />
    </g>
    <line
       class="cls-2"
       x1="426.53"
       x2="426.53"
       y2="14.19"
       id="line71"
       y1="0"
       style="stroke:#ffffff" />
    <g
       id="g637"
       transform="translate(0,10.684985)"
       style="stroke:#ffffff;stroke-opacity:1;fill:#ffffff;fill-opacity:1">
      <path
         d="m 429.505,7.225 c 0.06,1.07 0.19,2.05 1.39,2.1 v 0.72 h -8.49 v -1 h 6.38 v -1.81 z"
         id="path73"
         style="stroke:#ffffff;stroke-opacity:1;fill:#ffffff;fill-opacity:1" />
      <path
         d="m 426.525,12.635 c 1.87,0 4.37,0.13 4.36,2.42 -0.01,2.29 -2.28,2.42 -4.37,2.42 -1.8,0 -4.29,-0.13 -4.29,-2.42 0,-2.29 2.28,-2.42 4.3,-2.42 z m -3.5,2.42 c 0,1.3 1.71,1.37 3.5,1.37 1.79,0 3.57,-0.07 3.57,-1.37 0,-1.3 -1.7,-1.37 -3.57,-1.37 -1.87,0 -3.54,0.08 -3.54,1.37 z"
         id="path75"
         style="stroke:#ffffff;stroke-opacity:1;fill:#ffffff;fill-opacity:1" />
      <path
         d="m 426.525,21.275 c 1.87,0 4.37,0.13 4.36,2.42 -0.01,2.29 -2.28,2.42 -4.37,2.42 -1.8,0 -4.29,-0.13 -4.29,-2.42 0,-2.29 2.28,-2.42 4.3,-2.42 z m -3.5,2.42 c 0,1.29 1.71,1.37 3.5,1.37 1.79,0 3.57,-0.07 3.57,-1.37 0,-1.3 -1.7,-1.37 -3.57,-1.37 -1.87,0 -3.54,0.08 -3.54,1.37 z"
         id="path77"
         style="stroke:#ffffff;stroke-opacity:1;fill:#ffffff;fill-opacity:1" />
      <path
         d="m 426.515,27.035 c 1.87,0 4.37,0.13 4.37,2.42 0,2.29 -2.28,2.42 -4.37,2.42 -1.8,0 -4.29,-0.13 -4.29,-2.42 0,-2.29 2.28,-2.42 4.29,-2.42 z m -3.5,2.42 c 0,1.3 1.71,1.37 3.5,1.37 1.79,0 3.57,-0.07 3.58,-1.37 0.01,-1.3 -1.7,-1.37 -3.57,-1.37 -1.87,0 -3.54,0.08 -3.54,1.37 z"
         id="path79"
         style="stroke:#ffffff;stroke-opacity:1;fill:#ffffff;fill-opacity:1" />
      <path
         d="m 426.515,32.795 c 1.87,0 4.37,0.13 4.36,2.42 -0.01,2.29 -2.28,2.42 -4.37,2.42 -1.8,0 -4.29,-0.13 -4.29,-2.42 0,-2.29 2.29,-2.42 4.3,-2.42 z m -3.5,2.42 c 0,1.3 1.71,1.37 3.5,1.37 1.79,0 3.57,-0.07 3.58,-1.37 0.01,-1.3 -1.71,-1.34 -3.58,-1.34 -1.87,0 -3.53,0 -3.53,1.34 z"
         id="path81"
         style="stroke:#ffffff;stroke-opacity:1;fill:#ffffff;fill-opacity:1" />
    </g>
    <line
       class="cls-2"
       x1="369.76001"
       x2="369.76001"
       y2="14.19"
       id="line83"
       y1="0"
       style="stroke:#ffffff" />
    <g
       id="g643"
       transform="translate(0,7.9641387)"
       style="stroke:none;stroke-opacity:1;fill:#ffffff;fill-opacity:1">
      <path
         d="m 369.73585,11.460279 a 1.76,1.76 0 0 1 1.81,-1.23 2.17,2.17 0 0 1 0,4.34 1.76,1.76 0 0 1 -1.81,-1.24 2,2 0 0 1 -2.18,1.5 2.44,2.44 0 1 1 0,-4.8699999 2,2 0 0 1 2.18,1.4999999 z m -3.9,0.93 c 0,1 0.75,1.38 1.75,1.38 1,0 1.75,-0.4 1.75,-1.38 0,-0.98 -0.75,-1.38 -1.75,-1.38 -1,0 -1.75,0.4 -1.75,1.39 z m 5.69,-1.11 c -0.79,0 -1.39,0.33 -1.39,1.12 0,0.79 0.6,1.12 1.39,1.12 0.79,0 1.39,-0.35 1.39,-1.12 0,-0.77 -0.59,-1.12 -1.39,-1.12 z"
         id="path85"
         style="stroke:none;stroke-opacity:1;fill:#ffffff;fill-opacity:1" />
      <path
         d="m 369.33585,18.610279 c 1.87,0 4.36,0.13 4.36,2.42 0,2.29 -2.28,2.42 -4.37,2.42 -1.8,0 -4.29,-0.13 -4.29,-2.42 0,-2.29 2.29,-2.42 4.3,-2.42 z m -3.5,2.42 c 0,1.3 1.71,1.37 3.5,1.37 1.79,0 3.57,-0.07 3.58,-1.37 0.01,-1.3 -1.7,-1.37 -3.57,-1.37 -1.87,0 -3.56,0.08 -3.56,1.38 z"
         id="path87"
         style="stroke:none;stroke-opacity:1;fill:#ffffff;fill-opacity:1" />
      <path
         d="m 369.33585,24.370279 c 1.87,0 4.37,0.13 4.36,2.42 -0.01,2.29 -2.28,2.42 -4.37,2.42 -1.8,0 -4.29,-0.13 -4.29,-2.42 0,-2.29 2.29,-2.42 4.3,-2.42 z m -3.5,2.42 c 0,1.3 1.71,1.37 3.5,1.37 1.79,0 3.57,-0.07 3.57,-1.37 0,-1.3 -1.7,-1.37 -3.57,-1.37 -1.87,0 -3.55,0.08 -3.55,1.38 z"
         id="path89"
         style="stroke:none;stroke-opacity:1;fill:#ffffff;fill-opacity:1" />
      <path
         d="m 369.33585,30.110279 c 1.87,0 4.37,0.13 4.36,2.42 -0.01,2.29 -2.28,2.42 -4.37,2.42 -1.8,0 -4.29,-0.13 -4.29,-2.42 0,-2.29 2.28,-2.42 4.3,-2.42 z m -3.5,2.42 c 0,1.29 1.71,1.37 3.5,1.37 1.79,0 3.57,-0.07 3.57,-1.37 0,-1.3 -1.7,-1.37 -3.57,-1.37 -1.87,0 -3.55,0.1 -3.55,1.4 z"
         id="path91"
         style="stroke:none;stroke-opacity:1;fill:#ffffff;fill-opacity:1" />
    </g>
    <line
       class="cls-2"
       x1="311.41"
       x2="311.41"
       y2="14.19"
       id="line93"
       y1="0"
       style="stroke:#ffffff" />
    <g
       id="g649"
       transform="translate(0,8.024985)"
       style="stroke:none;stroke-opacity:1;fill:#ffffff;fill-opacity:1">
      <path
         d="m 313.625,13.585 a 1.11,1.11 0 0 0 1.25,-1.12 c 0,-1.42 -2.11,-1.5 -2.55,-1.5 h -0.67 v 0 a 1.85,1.85 0 0 1 0.95,1.62 c 0,1.48 -1.09,2.22 -2.69,2.22 -1.6,0 -2.9,-0.82 -2.9,-2.4 0,-2.35 2.27,-2.52 4,-2.52 1.94,0 4.63,0.12 4.63,2.58 a 2,2 0 0 1 -2,2.15 z m -5.83,-1.15 c 0,1.06 1.08,1.34 2,1.34 0.92,0 2,-0.22 2,-1.34 0,-1.12 -1.15,-1.36 -2.07,-1.36 -0.92,0 -1.93,0.3 -1.93,1.36 z"
         id="path95"
         style="stroke:none;stroke-opacity:1;fill:#ffffff;fill-opacity:1" />
      <path
         d="m 311.295,18.595 c 1.87,0 4.37,0.13 4.37,2.42 0,2.29 -2.28,2.42 -4.37,2.42 -1.8,0 -4.29,-0.13 -4.29,-2.42 0,-2.29 2.27,-2.42 4.29,-2.42 z m -3.5,2.42 c 0,1.29 1.71,1.37 3.5,1.37 1.79,0 3.57,-0.07 3.58,-1.37 0.01,-1.3 -1.7,-1.37 -3.57,-1.37 -1.87,0 -3.51,0.07 -3.51,1.37 z"
         id="path97"
         style="stroke:none;stroke-opacity:1;fill:#ffffff;fill-opacity:1" />
      <path
         d="m 311.295,24.355 c 1.87,0 4.37,0.13 4.36,2.42 -0.01,2.29 -2.28,2.42 -4.37,2.42 -1.8,0 -4.29,-0.13 -4.29,-2.42 0,-2.29 2.28,-2.42 4.3,-2.42 z m -3.5,2.42 c 0,1.29 1.71,1.37 3.5,1.37 1.79,0 3.57,-0.07 3.58,-1.37 0.01,-1.3 -1.7,-1.37 -3.57,-1.37 -1.87,0 -3.52,0.07 -3.52,1.37 z"
         id="path99"
         style="stroke:none;stroke-opacity:1;fill:#ffffff;fill-opacity:1" />
      <path
         d="m 311.285,30.075 c 1.87,0 4.37,0.13 4.36,2.42 -0.01,2.29 -2.28,2.42 -4.37,2.42 -1.8,0 -4.29,-0.13 -4.29,-2.42 0,-2.29 2.29,-2.42 4.3,-2.42 z m -3.5,2.42 c 0,1.3 1.71,1.37 3.5,1.37 1.79,0 3.57,-0.07 3.57,-1.37 0,-1.3 -1.7,-1.37 -3.57,-1.37 -1.87,0 -3.5,0.11 -3.5,1.41 z"
         id="path101"
         style="stroke:none;stroke-opacity:1;fill:#ffffff;fill-opacity:1" />
    </g>
    <line
       class="cls-2"
       x1="253.06"
       x2="253.06"
       y2="14.19"
       id="line103"
       y1="0"
       style="stroke:#ffffff" />
    <g
       id="g655"
       transform="translate(0,8.074985)"
       style="stroke:none;stroke-opacity:1;fill:#ffffff;fill-opacity:1">
      <path
         d="m 256.095,12.905 v 1 h -5.58 v 1 h -0.86 v -1 h -2.05 v -1 h 2.05 v -3.07 h 0.95 z m -5.58,-2.16 v 2.16 h 3.92 v 0 z"
         id="path105"
         style="stroke:none;stroke-opacity:1;fill:#ffffff;fill-opacity:1" />
      <path
         d="m 251.725,18.575 c 1.87,0 4.37,0.13 4.36,2.42 -0.01,2.29 -2.28,2.42 -4.37,2.42 -1.8,0 -4.29,-0.13 -4.29,-2.42 0,-2.29 2.29,-2.42 4.3,-2.42 z m -3.5,2.42 c 0,1.29 1.71,1.37 3.5,1.37 1.79,0 3.58,-0.07 3.58,-1.37 0,-1.3 -1.71,-1.37 -3.58,-1.37 -1.87,0 -3.5,0.07 -3.5,1.37 z"
         id="path107"
         style="stroke:none;stroke-opacity:1;fill:#ffffff;fill-opacity:1" />
      <path
         d="m 251.725,24.335 c 1.87,0 4.37,0.13 4.36,2.42 -0.01,2.29 -2.28,2.42 -4.37,2.42 -1.8,0 -4.29,-0.13 -4.29,-2.42 0,-2.29 2.29,-2.42 4.3,-2.42 z m -3.5,2.42 c 0,1.29 1.71,1.37 3.5,1.37 1.79,0 3.57,-0.07 3.57,-1.37 0,-1.3 -1.7,-1.37 -3.57,-1.37 -1.87,0 -3.5,0.07 -3.5,1.37 z"
         id="path109"
         style="stroke:none;stroke-opacity:1;fill:#ffffff;fill-opacity:1" />
      <path
         d="m 251.725,30.095 c 1.87,0 4.37,0.13 4.36,2.42 -0.01,2.29 -2.28,2.42 -4.37,2.42 -1.8,0 -4.29,-0.13 -4.29,-2.42 0,-2.29 2.29,-2.42 4.3,-2.42 z m -3.5,2.42 c 0,1.3 1.71,1.37 3.5,1.37 1.79,0 3.57,-0.07 3.57,-1.37 0,-1.3 -1.7,-1.37 -3.57,-1.37 -1.87,0 -3.5,0.07 -3.5,1.37 z"
         id="path111"
         style="stroke:none;stroke-opacity:1;fill:#ffffff;fill-opacity:1" />
    </g>
    <line
       class="cls-2"
       x1="194.7"
       x2="194.7"
       y2="14.19"
       id="line113"
       y1="0"
       style="stroke:#ffffff" />
    <g
       id="g661"
       transform="translate(0,8.028689)"
       style="stroke:none;stroke-opacity:1;fill:#ffffff;fill-opacity:1">
      <path
         d="M 189.6713,14.631296 V 9.8812961 a 4.53,4.53 0 0 1 3.53,1.8299999 l 0.59,0.7 a 2.51,2.51 0 0 0 2,1.13 c 0.73,0 1.52,-0.32 1.52,-1.24 0,-1.31 -1.35,-1.34 -1.83,-1.34 V 9.9012961 c 1.61,0 2.7,0.6699999 2.7,2.4099999 a 2.11,2.11 0 0 1 -2.27,2.28 3.35,3.35 0 0 1 -2.79,-1.49 l -1,-1.2 a 2.64,2.64 0 0 0 -1.45,-0.92 v 3.65 z"
         id="path115"
         style="stroke:none;stroke-opacity:1;fill:#ffffff;fill-opacity:1" />
      <path
         d="m 193.8013,18.511296 c 1.87,0 4.37,0.13 4.37,2.42 0,2.29 -2.28,2.42 -4.37,2.42 -1.8,0 -4.29,-0.13 -4.29,-2.42 0,-2.29 2.27,-2.42 4.29,-2.42 z m -3.5,2.42 c 0,1.29 1.71,1.37 3.5,1.37 1.79,0 3.57,-0.07 3.58,-1.37 0.01,-1.3 -1.71,-1.42 -3.58,-1.42 -1.87,0 -3.5,0.08 -3.5,1.38 z"
         id="path117"
         style="stroke:none;stroke-opacity:1;fill:#ffffff;fill-opacity:1" />
      <path
         d="m 193.8013,24.231296 c 1.87,0 4.37,0.13 4.36,2.42 -0.01,2.29 -2.28,2.42 -4.37,2.42 -1.8,0 -4.29,-0.13 -4.29,-2.42 0,-2.29 2.28,-2.42 4.3,-2.42 z m -3.5,2.42 c 0,1.29 1.71,1.37 3.5,1.37 1.79,0 3.57,-0.07 3.57,-1.37 0,-1.3 -1.7,-1.37 -3.57,-1.37 -1.87,0 -3.51,0.07 -3.51,1.37 z"
         id="path119"
         style="stroke:none;stroke-opacity:1;fill:#ffffff;fill-opacity:1" />
      <path
         d="m 193.8013,29.991296 c 1.87,0 4.37,0.13 4.36,2.42 -0.01,2.29 -2.28,2.42 -4.37,2.42 -1.8,0 -4.29,-0.13 -4.29,-2.42 0,-2.29 2.28,-2.42 4.3,-2.42 z m -3.5,2.42 c 0,1.3 1.71,1.37 3.5,1.37 1.79,0 3.57,-0.07 3.57,-1.37 0,-1.3 -1.7,-1.37 -3.57,-1.37 -1.87,0 -3.51,0.08 -3.51,1.37 z"
         id="path121"
         style="stroke:none;stroke-opacity:1;fill:#ffffff;fill-opacity:1" />
    </g>
    <line
       class="cls-2"
       x1="136.35001"
       x2="136.35001"
       y2="14.19"
       id="line123"
       y1="0"
       style="stroke:#ffffff" />
    <g
       id="g667"
       transform="translate(0,7.879985)"
       style="stroke:none;stroke-opacity:1;fill:#ffffff;fill-opacity:1">
      <path
         d="m 138.95,10.03 c 0.06,1.07 0.19,2.05 1.39,2.1 v 0.72 h -8.49 v -1 h 6.38 v -1.81 z"
         id="path125"
         style="stroke:none;stroke-opacity:1;fill:#ffffff;fill-opacity:1" />
      <path
         d="m 135.97,18.35 c 1.87,0 4.37,0.13 4.37,2.42 0,2.29 -2.28,2.42 -4.37,2.42 -1.8,0 -4.29,-0.13 -4.29,-2.42 0,-2.29 2.28,-2.42 4.29,-2.42 z m -3.5,2.42 c 0,1.29 1.71,1.37 3.5,1.37 1.79,0 3.57,-0.07 3.58,-1.37 0.01,-1.3 -1.7,-1.42 -3.58,-1.42 -1.88,0 -3.5,0.09 -3.5,1.39 z"
         id="path127"
         style="stroke:none;stroke-opacity:1;fill:#ffffff;fill-opacity:1" />
      <path
         d="m 135.97,24.08 c 1.87,0 4.36,0.13 4.36,2.42 0,2.29 -2.28,2.42 -4.37,2.42 -1.8,0 -4.29,-0.13 -4.29,-2.42 0,-2.29 2.29,-2.42 4.3,-2.42 z m -3.5,2.42 c 0,1.29 1.71,1.37 3.5,1.37 1.79,0 3.57,-0.07 3.58,-1.37 0.01,-1.3 -1.7,-1.37 -3.57,-1.37 -1.87,0 -3.51,0.07 -3.51,1.37 z"
         id="path129"
         style="stroke:none;stroke-opacity:1;fill:#ffffff;fill-opacity:1" />
      <path
         d="m 135.97,29.84 c 1.87,0 4.37,0.13 4.36,2.42 -0.01,2.29 -2.28,2.42 -4.37,2.42 -1.8,0 -4.29,-0.13 -4.29,-2.42 0,-2.29 2.29,-2.42 4.3,-2.42 z m -3.5,2.42 c 0,1.3 1.71,1.37 3.5,1.37 1.79,0 3.57,-0.07 3.57,-1.37 0,-1.3 -1.7,-1.37 -3.57,-1.37 -1.87,0 -3.5,0.08 -3.5,1.37 z"
         id="path131"
         style="stroke:none;stroke-opacity:1;fill:#ffffff;fill-opacity:1" />
    </g>
    <line
       class="cls-2"
       x1="106.39"
       x2="106.39"
       y2="14.19"
       id="line133"
       y1="0"
       style="stroke:#ffffff" />
    <g
       id="g672"
       transform="translate(0,3.767332)"
       style="stroke:none;stroke-opacity:1;fill:#ffffff;fill-opacity:1">
      <path
         d="m 110.18265,14.887318 v 3.79 h -0.94 v -3 l -2.46,-0.35 v 0 a 1.92,1.92 0 0 1 0.64,1.49 c 0,1.27 -1,2.13 -2.8,2.13 -1.58,0 -2.91,-0.7 -2.91,-2.47 a 2.21,2.21 0 0 1 2.35,-2.33 v 1.06 c -0.44,0 -1.56,0.17 -1.56,1.29 0,1.12 1.34,1.39 2.21,1.39 0.87,0 1.92,-0.35 1.92,-1.42 a 1.26,1.26 0 0 0 -0.83,-1.2 v -0.91 z"
         id="path135"
         style="stroke:none;stroke-opacity:1;fill:#ffffff;fill-opacity:1" />
      <path
         d="m 105.98265,19.937318 c 1.87,0 4.37,0.13 4.36,2.42 -0.01,2.29 -2.28,2.42 -4.37,2.42 -1.8,0 -4.29,-0.13 -4.29,-2.42 0,-2.29 2.28,-2.42 4.3,-2.42 z m -3.5,2.42 c 0,1.29 1.71,1.37 3.5,1.37 1.79,0 3.57,-0.07 3.57,-1.37 0,-1.3 -1.7,-1.37 -3.57,-1.37 -1.87,0 -3.5,0.07 -3.5,1.34 z"
         id="path137"
         style="stroke:none;stroke-opacity:1;fill:#ffffff;fill-opacity:1" />
      <path
         d="m 105.98265,25.697318 c 1.87,0 4.37,0.13 4.36,2.42 -0.01,2.29 -2.28,2.42 -4.37,2.42 -1.8,0 -4.29,-0.13 -4.29,-2.42 0,-2.29 2.28,-2.42 4.3,-2.42 z m -3.5,2.42 c 0,1.29 1.71,1.37 3.5,1.37 1.79,0 3.57,-0.07 3.57,-1.37 0,-1.3 -1.7,-1.37 -3.57,-1.37 -1.87,0 -3.51,0.07 -3.51,1.37 z"
         id="path139"
         style="stroke:none;stroke-opacity:1;fill:#ffffff;fill-opacity:1" />
    </g>
    <g
       id="g686"
       transform="translate(18.827982,20.716012)"
       style="fill:#ffffff">
      <path
         d="m 45.474037,-18.276012 v 1.75 l -8.52,2.25 v -1.44 l 2.1,-0.53 v -2.47 l -2.1,-0.57 v -1.43 z m -5.37,1.82 4.22,-1 v 0 l -4.22,-1 z"
         id="path141"
         style="fill:#ffffff" />
      <path
         d="m 45.474037,-13.826012 v 1.37 h -7.41 v 3.31 h -1.11 v -4.68 z"
         id="path143"
         style="fill:#ffffff" />
      <path
         d="m 44.324037,-8.036012 v -2 h 1.15 v 5.32 h -1.15 v -2 h -7.37 v -1.33 z"
         id="path145"
         style="fill:#ffffff" />
      <path
         d="m 45.474037,-3.946012 v 1.37 h -8.52 v -1.37 z"
         id="path147"
         style="fill:#ffffff" />
      <path
         d="M 44.324037,0.18398803 V -1.816012 h 1.15 v 5.41 h -1.15 v -2 h -7.37 V 0.17398803 Z"
         id="path149"
         style="fill:#ffffff" />
      <path
         d="m 45.474037,5.593988 h -6.14 c -1.08,0 -1.56,0.43 -1.56,1.26 0,0.83 0.48,1.25 1.56,1.25 h 6.14 v 1.37 h -6 c -2,0 -2.7,-1 -2.7,-2.62 0,-1.62 0.72,-2.63 2.7,-2.63 h 6 z"
         id="path151"
         style="fill:#ffffff" />
      <path
         d="m 45.474037,10.773988 v 2.43 c 0,2.69 -1.75,3 -4.28,3 -2.53,0 -4.28,-0.34 -4.28,-3 v -2.43 z m -7.52,1.37 v 1.14 c 0,1.13 0.74,1.59 3.25,1.6 2.51,0.01 3.23,-0.43 3.23,-1.6 v -1.14 z"
         id="path153"
         style="fill:#ffffff" />
      <path
         d="m 45.464037,17.453988 v 4.63 h -1.15 v -3.27 h -2.36 v 3.07 h -1.17 v -3.07 h -2.73 v 3.36 h -1.15 v -4.73 z"
         id="path155"
         style="fill:#ffffff" />
      <path
         d="m 45.464037,28.503988 a 10.12,10.12 0 0 0 -5.38,-1.37 10.44,10.44 0 0 0 -5.39,1.37 v -0.92 a 9.15,9.15 0 0 1 10.77,0 z"
         id="path157"
         style="fill:#ffffff" />
      <path
         d="m 42.394037,29.523988 v -0.9 h 1 v 0.9 h 0.56 c 1.22,0 1.61,0.59 1.61,1.64 a 5.58,5.58 0 0 1 0,0.71 h -1 v -0.36 c 0,-0.48 -0.18,-0.7 -0.61,-0.7 h -0.6 v 1.06 h -1 v -1.06 h -5.49 v -1.3 z"
         id="path159"
         style="fill:#ffffff" />
      <path
         d="m 43.344037,32.404659 v 0.89 h 1.84 v 1.3 h -1.84 v 1.1 h -1 v -1.11 h -3.85 c -0.5,0 -0.68,0.14 -0.68,0.59 a 2.51,2.51 0 0 0 0,0.47 h -1 a 4.27,4.27 0 0 1 -0.11,-1 c 0,-0.88 0.24,-1.31 1.56,-1.31 h 4 v -0.89 z"
         id="path161"
         style="fill:#ffffff" />
      <path
         d="m 34.684037,35.694659 a 10.12,10.12 0 0 0 5.39,1.37 10.42,10.42 0 0 0 5.38,-1.37 v 0.92 a 9.16,9.16 0 0 1 -10.77,0 z"
         id="path163"
         style="fill:#ffffff" />
    </g>
  </g>
  <metadata
     id="metadata294">
    <rdf:RDF>
      <cc:Work
         rdf:about="">
        <dc:title>Altitude Legend (ft)</dc:title>
      </cc:Work>
    </rdf:RDF>
  </metadata>
</svg>
